<svg width="20" height="19" viewBox="0 0 20 19" fill="none" xmlns="http://www.w3.org/2000/svg">
<path d="M19.2922 5.1684C19.2245 3.73389 18.5107 2.40541 17.2816 1.43035C16.701 0.970894 16.0405 0.613306 15.3171 0.367983C14.5937 0.12474 13.8291 0 13.0428 0C12.9581 0 12.871 0.002079 12.7864 0.004158C11.1169 0.0623701 9.57334 0.675676 8.4362 1.73389L1.39806 8.25987C1.17305 8.46987 1.18515 8.79628 1.42709 8.99168L1.91582 9.38669C2.16018 9.5842 2.54487 9.5738 2.77472 9.36175L9.8177 2.8316C10.621 2.08316 11.7992 1.65281 13.0477 1.65281C14.1703 1.65281 15.2227 1.99584 16.0066 2.61954C16.8655 3.30146 17.3664 4.22869 17.4123 5.23493C17.4583 6.23909 17.0518 7.19543 16.2631 7.92931L6.69665 16.7048C6.2176 17.1497 5.51839 17.4054 4.77562 17.4054C4.10785 17.4054 3.48122 17.2017 3.01427 16.8295C2.50377 16.4241 2.20859 15.8732 2.17714 15.2744C2.14811 14.6778 2.39005 14.1081 2.857 13.6736C2.857 13.6736 11.7605 5.50936 11.7751 5.49896C12.5541 4.80457 13.7759 5.81497 12.9969 6.50936C11.6735 7.68815 8.27415 10.842 6.60958 12.3909C6.38455 12.6009 6.39664 12.9272 6.63859 13.1227L7.12731 13.5177C7.3717 13.7152 7.75637 13.7048 7.98621 13.4927L14.3953 7.55509C15.409 6.61123 15.3413 5.13306 14.2405 4.25987C13.7396 3.86279 13.084 3.64241 12.3993 3.64241C12.0291 3.64241 11.671 3.70478 11.3323 3.82952C10.9839 3.95634 10.6742 4.14345 10.4177 4.38461L1.48274 12.5717C-0.193933 14.1331 -0.0777994 16.5759 1.7392 18.0187C2.53761 18.6528 3.61426 19 4.77076 19C6.05548 19 7.25794 18.5655 8.07087 17.8087L17.6373 9.03324C18.7696 7.97713 19.3576 6.60499 19.2922 5.1684Z" fill="#78777C"/>
</svg>
