<svg width="100" height="100" fill="none" xmlns="http://www.w3.org/2000/svg"><path d="M92 50c0 23.196-18.804 42-42 42S8 73.196 8 50 26.804 8 50 8s42 18.804 42 42z" fill="#2769F0"/><path d="M99 50c0 27.062-21.938 49-49 49S1 77.062 1 50 22.938 1 50 1s49 21.938 49 49z" stroke="#2769F0" stroke-width="2"/><ellipse cx="53.477" cy="75.716" rx="1.869" ry="1.905" fill="#144C93"/><path d="M62.397 79.507H37.986c-2.2 0-3.986-1.772-3.986-3.957V25.687c0-2.184 1.786-3.957 3.986-3.957h24.427c2.2 0 3.986 1.773 3.986 3.957V75.55a3.987 3.987 0 01-4.002 3.957z" fill="#191847"/><path d="M62.397 79.507H37.986c-2.2 0-3.986-1.772-3.986-3.957V25.687c0-2.184 1.786-3.957 3.986-3.957h24.427c2.2 0 3.986 1.773 3.986 3.957V75.55a3.987 3.987 0 01-4.002 3.957z" fill="#002777"/><path d="M53.861 24.825H46.54c-.202 0-.389-.225-.389-.515v-1.032c0-.274.171-.516.389-.516h7.322c.218 0 .389.226.389.516v1.032c0 .274-.171.515-.389.515z" fill="#8B9FB9"/><path d="M60.31 73.317H40.09a4.062 4.062 0 01-4.065-4.056V29.913a4.062 4.062 0 014.064-4.056H60.31a4.062 4.062 0 014.064 4.056v39.364a4.048 4.048 0 01-4.064 4.04z" fill="#8AC9F9"/><path d="M50.202 44.428c5.312 0 9.619 4.388 9.619 9.802 0 5.413-4.307 9.801-9.619 9.801-5.312 0-9.618-4.388-9.618-9.801 0-5.414 4.306-9.802 9.618-9.802z" fill="#DDEFFD"/><path d="M86.992 13H65.78c-2.662 0-4.827 2.236-4.827 4.987v11.876c0 2.75 2.165 4.986 4.827 4.986h3.484l-3.17 7.199 9.788-7.199H86.98c2.662 0 4.814-2.236 4.814-4.986V17.974c.013-2.75-2.152-4.974-4.802-4.974z" fill="#002777"/><ellipse cx="50.206" cy="52.048" rx="11.682" ry="12.381" fill="#fff"/><path fill-rule="evenodd" clip-rule="evenodd" d="M43.74 45.902c.891.067 1.783-.737 1.816-1.475-.66.436-1.255.939-1.817 1.475zm3.27-1.072c.726.737 2.477.502 2.94-.839 0-.435-.331-.77-.86-.905-.627.1-1.255.269-1.85.503-.495.268-.792.67-.23 1.24z" fill="#1759E0"/><path fill-rule="evenodd" clip-rule="evenodd" d="M51.435 44.059c.232 1.24 2.676 1.743 2.94.2-.033-.267-.198-.502-.429-.703a14.508 14.508 0 00-1.718-.503c-.793.168-.793.57-.793 1.006zm5.981 1.843c-.528-.603-1.156-1.106-1.816-1.542v.067c.132.637.825 1.308 1.52 1.442a.313.313 0 00.296.033z" fill="#FFA800"/><path fill-rule="evenodd" clip-rule="evenodd" d="M44.897 47.813c-.099.938-1.09 2.179-2.048 1.71-1.222-1.006 0-2.247 1.024-2.883.694-.202 1.156.301 1.024 1.173zm4.886-.503c-.099 1.676-2.312 2.18-3.27 1.442-.99-.972.231-2.716 1.586-2.816.958-.1 1.717.503 1.684 1.374z" fill="#1759E0"/><path fill-rule="evenodd" clip-rule="evenodd" d="M55.002 47.645c.133.872-.495 1.576-1.519 1.475-1.024-.067-1.949-.938-1.982-1.843-.033-.905.727-1.475 1.652-1.375.892.134 1.717.872 1.85 1.743zm3.703.738c.1.805-.297 1.375-.958 1.307-.66-.1-1.321-.938-1.486-1.743-.132-.838.33-1.34 1.024-1.173.694.1 1.288.805 1.42 1.61z" fill="#FFA800"/><path fill-rule="evenodd" clip-rule="evenodd" d="M44.5 52.305c.033.67-.462 1.643-1.189 1.643-1.717-.235-1.486-2.95-.033-3.353.66-.067 1.223.67 1.223 1.71zm5.22.034c-.033 1.173-.992 2.179-1.982 2.179-2.445-.235-2.445-3.956 0-4.224 1.09-.067 1.981.838 1.981 2.045z" fill="#1759E0"/><path fill-rule="evenodd" clip-rule="evenodd" d="M55.367 52.306c0 1.072-.793 2.01-1.817 2.044-1.023.067-1.948-.871-1.948-2.044 0-1.207.891-2.112 1.948-2.045 1.024.067 1.817.972 1.817 2.044zm3.602-.001c.066.67-.43 1.643-1.19 1.643-1.717-.235-1.486-2.95.033-3.352.661.067 1.157.838 1.157 1.71z" fill="#FFA800"/><path fill-rule="evenodd" clip-rule="evenodd" d="M44.896 56.764c.132.838-.33 1.34-1.024 1.207-.694-.168-1.322-.872-1.454-1.676-.132-.805.298-1.408.958-1.308.694.1 1.388.939 1.52 1.777zm4.894.57c.165 1.877-2.313 1.642-3.072.871-.991-1.005-.496-2.748 1.057-2.715 1.057.1 1.982.939 2.015 1.844z" fill="#1759E0"/><path fill-rule="evenodd" clip-rule="evenodd" d="M55.002 56.931c-.132.872-.925 1.61-1.85 1.71-.924.1-1.684-.47-1.651-1.375.033-.905.958-1.743 1.982-1.843.99-.034 1.652.636 1.52 1.508zm3.708-.671c-.133 1.174-1.124 2.146-2.115 1.409-.727-.503-.231-2.48 1.156-2.715.66-.068 1.057.536.958 1.307z" fill="#FFA800"/><path fill-rule="evenodd" clip-rule="evenodd" d="M45.556 60.217c-.132-.637-.858-1.308-1.585-1.442a.852.852 0 00-.364-.1 9.129 9.129 0 001.95 1.609v-.067z" fill="#1759E0"/><path fill-rule="evenodd" clip-rule="evenodd" d="M53.023 59.412c-1.355.268-1.85 1.006-1.355 1.743.1.235.298.369.529.47a8.922 8.922 0 001.618-.436c.265-.202.463-.503.595-.838.066-.604-.495-1.04-1.387-.939z" fill="#FFA800"/><path fill-rule="evenodd" clip-rule="evenodd" d="M48.136 59.412c1.355.268 1.85 1.006 1.355 1.743-.1.235-.298.369-.529.47a8.887 8.887 0 01-1.618-.436c-.265-.202-.463-.503-.595-.838-.099-.604.495-1.04 1.387-.939z" fill="#1759E0"/><path fill-rule="evenodd" clip-rule="evenodd" d="M57.481 58.675c-.099 0-.231 0-.363.033-.694.201-1.553.805-1.586 1.643a9.425 9.425 0 001.95-1.676z" fill="#FFA800"/><path d="M83.281 22.891l-.007-.008-.008-.008a1.231 1.231 0 00-.93-.388c-.192 0-.355.049-.504.112-.14.061-.308.152-.436.303l-3.734 3.875v-9.829c0-.356-.133-.696-.381-.949a1.247 1.247 0 00-.917-.392c-.346 0-.666.14-.912.388a1.344 1.344 0 00-.385.953v9.829l-3.722-3.863-.01-.01-.01-.008-.01-.008a1.651 1.651 0 00-.4-.27 1.288 1.288 0 00-1.007-.018c-.14.06-.307.15-.435.301a1.339 1.339 0 00-.359.945c0 .188.046.37.112.523.069.161.179.316.29.428l5.915 6.139h0l.003.003c.132.133.269.225.427.293.148.064.312.113.503.113.192 0 .355-.049.504-.113.16-.07.315-.181.427-.293h0l.003-.003 5.926-6.15c.148-.128.237-.295.297-.435.066-.154.112-.335.112-.523 0-.162-.02-.341-.088-.51a1.218 1.218 0 00-.252-.413l-.012-.014z" fill="#fff" stroke="#fff" stroke-width=".5"/></svg>