<svg width="100" height="100" fill="none" xmlns="http://www.w3.org/2000/svg"><path d="M92 50c0 23.196-18.804 42-42 42S8 73.196 8 50 26.804 8 50 8s42 18.804 42 42z" fill="#2769F0"/><path d="M71.964 69.795H28.929A4.93 4.93 0 0124 64.867V33.928A4.93 4.93 0 0128.929 29h43.035a4.93 4.93 0 014.928 4.928v30.94c.01 2.72-2.197 4.927-4.928 4.927z" fill="#002777"/><path d="M60.632 33.243c0 .809-.657 1.475-1.466 1.475a1.476 1.476 0 01-1.475-1.475 1.47 1.47 0 112.94 0zm4.5 1.475a1.475 1.475 0 100-2.95 1.475 1.475 0 000 2.95zm7.438-1.475c0 .809-.657 1.475-1.475 1.475a1.468 1.468 0 01-1.465-1.475 1.47 1.47 0 112.94 0z" fill="#8B9FB9"/><path d="M71.964 69.795H28.929A4.93 4.93 0 0124 64.866V37.752h52.902v27.114a4.931 4.931 0 01-4.938 4.929z" fill="#8AC9F9"/><path d="M44.237 55.22c0 4.757-3.863 8.61-8.62 8.61-4.758 0-8.62-3.853-8.62-8.61a8.618 8.618 0 018.62-8.62 8.612 8.612 0 018.62 8.62z" fill="#FFBE1B"/><path d="M35.32 59.92v-.84c-.97-.106-1.843-.526-2.616-1.252l.78-.996c.594.555 1.209.89 1.843.996v-2.227c-.8-.207-1.387-.477-1.764-.812-.37-.334-.562-.832-.562-1.494s.218-1.202.648-1.622c.43-.42.991-.648 1.678-.69v-.577h.68v.584c.78.064 1.52.348 2.214.86l-.693 1.054a3.37 3.37 0 00-1.52-.669v2.156h.033c.82.206 1.414.484 1.797.84.383.355.575.86.575 1.53 0 .668-.218 1.216-.66 1.636-.444.42-1.025.648-1.745.69v.826h-.687v.007zm-.753-7.4a.853.853 0 00-.27.64c0 .256.072.455.21.605.14.15.41.292.807.434v-1.985c-.31.035-.562.135-.747.306zm2.24 5.03a.854.854 0 00.298-.661c0-.264-.08-.477-.232-.634-.158-.156-.449-.306-.872-.44v2.063c.344-.043.608-.157.806-.328z" fill="#fff"/><path d="M71.173 64.334l-4.1-.38V47.655h4.1v16.678zM64.55 51.861h-4.1v12.092h4.1V51.861zm-6.622 3.826h-4.1v8.268h4.1v-8.268zm-6.624 3.824h-4.1v4.443h4.1v-4.443z" fill="#002777"/><path d="M70.048 40.493a1.02 1.02 0 00-.723-.324l-4.3.01a.978.978 0 00-.98.98c0 .542.437.98.98.98h1.855l-9.867 6.83-1.503-1.436a.977.977 0 00-1.218-.105l-8.011 5.357a.984.984 0 001.094 1.636l7.355-4.918 1.513 1.446a.978.978 0 001.236.095l10.619-7.354-.133 1.427a.975.975 0 00.885 1.065h.095c.504 0 .923-.38.97-.885l.38-4.052a.944.944 0 00-.247-.752z" fill="#fff"/><path d="M99 50c0 27.062-21.938 49-49 49S1 77.062 1 50 22.938 1 50 1s49 21.938 49 49z" stroke="#2769F0" stroke-width="2"/></svg>