<svg width="100" height="100" fill="none" xmlns="http://www.w3.org/2000/svg"><path d="M92 50c0 23.196-18.804 42-42 42S8 73.196 8 50 26.804 8 50 8s42 18.804 42 42z" fill="#2769F0"/><path d="M99 50c0 27.062-21.938 49-49 49S1 77.062 1 50 22.938 1 50 1s49 21.938 49 49z" stroke="#2769F0" stroke-width="2"/><path d="M64.622 68.423c0 7.883-6.389 14.271-14.272 14.271s-14.272-6.388-14.272-14.27c0-7.883 6.39-14.271 14.272-14.271 7.883 0 14.272 6.388 14.272 14.27z" fill="#6396FF"/><path d="M50.35 60.812l-1.41.803-3.841 2.2-1.41.803v7.61l1.41.804 3.876 2.2 1.41.802 1.41-.803 3.805-2.2 1.41-.802v-7.611l-1.41-.803-3.84-2.2-1.41-.803zm-3.841 9.81v-4.398l3.84-2.2 3.842 2.2v4.399l-3.841 2.2-3.841-2.2z" fill="#fff"/><path d="M82.718 50.356c0 7.887-6.393 14.28-14.281 14.28-7.888 0-14.28-6.393-14.28-14.28s6.392-14.28 14.28-14.28c7.888 0 14.28 6.393 14.28 14.28z" fill="#8AC9F9"/><path d="M68.436 53.099l-4.397-3.243 4.397-6.705 4.398 6.705-4.398 3.243z" fill="#fff"/><path d="M68.436 57.561l-4.397-6.82 4.397 3.46 4.398-3.46-4.398 6.82z" fill="#fff"/><path d="M64.64 32.28c0 7.886-6.393 14.279-14.281 14.279-7.888 0-14.28-6.392-14.28-14.28C36.078 24.392 42.47 18 50.358 18s14.28 6.392 14.28 14.28z" fill="#002777"/><path d="M55.362 26.873h2.013l-4.19 3.83c-1.516 1.387-3.976 1.387-5.494 0l-4.191-3.83h2.015l3.182 2.91a2.588 2.588 0 001.74.658 2.59 2.59 0 001.74-.658l3.185-2.91zm-9.873 10.65h-2.014l4.216-3.853c1.517-1.387 3.977-1.387 5.495 0l4.216 3.853H55.39l-3.21-2.933a2.588 2.588 0 00-1.74-.658c-.65 0-1.275.236-1.74.658l-3.21 2.933z" fill="#fff"/><path d="M46.562 51.307c0 7.887-6.393 14.28-14.281 14.28-7.888 0-14.281-6.393-14.281-14.28s6.393-14.28 14.28-14.28c7.889 0 14.282 6.393 14.282 14.28z" fill="#FFBE1B"/><path d="M36.874 55.54c.127-.687.036-1.304-.282-1.845-.318-.541-.796-.946-1.449-1.217a6.1 6.1 0 00.424-.111c.083-.024.23-.092.44-.203.628-.318 1.029-.899 1.188-1.754.131-.71.005-1.39-.38-2.045-.217-.357-.57-.667-1.08-.944a4.976 4.976 0 00-.488-.224l.258-1.39-1.916-.356-.234 1.26-1.291-.24.234-1.26-1.924-.357-.234 1.26-.535-.1-1.566-.29-.384 2.07 1.566.29-1.265 6.811-1.566-.29-.384 2.069 1.565.29.535.1-.234 1.26 1.924.357.234-1.26 1.29.24-.233 1.26 1.917.356.242-1.306c1.068.08 1.891-.1 2.471-.544.63-.5 1.015-1.123 1.157-1.887zm-2.549-6.271c.276.217.363.557.272 1.046-.09.48-.31.772-.665.856-.355.084-.873.067-1.553-.06l-1.16-.215.44-2.367 1.175.218c.726.135 1.223.306 1.491.522zm-.63 6.416c-.384.11-.92.097-1.622-.033l-1.672-.31.468-2.52 1.435.266c.818.152 1.39.345 1.734.575.337.228.466.6.372 1.104-.093.504-.333.815-.715.917z" fill="#fff"/></svg>