<svg viewBox="0 0 32 32" xmlns="http://www.w3.org/2000/svg"><g fill="none"><circle fill="#8247E5" cx="16" cy="16" r="16"/><path d="M21.296 12.577c-.384-.223-.883-.223-1.305 0l-2.993 1.711-2.034 1.117-2.994 1.711c-.383.224-.882.224-1.304 0l-2.38-1.34c-.383-.223-.652-.632-.652-1.078v-2.642c0-.447.23-.856.652-1.08l2.341-1.302c.384-.223.883-.223 1.305 0l2.341 1.303c.384.223.652.632.652 1.079v1.711l2.034-1.153v-1.712a1.2 1.2 0 0 0-.652-1.079L11.97 7.367c-.383-.223-.882-.223-1.304 0L6.252 9.823a1.2 1.2 0 0 0-.652 1.08v4.948c0 .447.23.856.652 1.08l4.414 2.455c.383.223.882.223 1.304 0l2.994-1.674 2.034-1.154 2.993-1.674c.384-.224.883-.224 1.305 0l2.34 1.302c.385.223.653.633.653 1.08v2.641a1.2 1.2 0 0 1-.652 1.079l-2.341 1.34c-.384.223-.883.223-1.305 0l-2.34-1.303c-.385-.223-.653-.632-.653-1.079v-1.711l-2.034 1.153v1.712c0 .446.23.855.652 1.079l4.413 2.456c.384.223.883.223 1.305 0l4.414-2.456c.383-.224.652-.633.652-1.08V16.15a1.2 1.2 0 0 0-.652-1.08l-4.452-2.492z" fill="#FFF"/></g></svg>