<svg viewBox="0 0 32 32" xmlns="http://www.w3.org/2000/svg" xmlns:xlink="http://www.w3.org/1999/xlink"><defs><radialGradient cx="50%" cy="50%" fx="50%" fy="50%" r="57.055%" gradientTransform="matrix(0 .87634 -1 0 1 .062)" id="b"><stop stop-color="#FF64A5" offset="0%"/><stop stop-color="#F7F8FA" offset="100%"/></radialGradient><circle id="a" cx="16" cy="16" r="16"/></defs><g fill="none" fill-rule="evenodd"><mask id="c" fill="#fff"><use xlink:href="#a"/></mask><use fill="#FFF" fill-rule="nonzero" xlink:href="#a"/><path fill="url(#b)" fill-rule="nonzero" opacity=".196" mask="url(#c)" d="M-7.885-25.737h61.846v70.572H-7.885z"/><g fill="#FF007A" fill-rule="nonzero"><path d="M15.882 14.308c.47.503-.582.658-1.076.687-.748.044-.903-.218-.756-.546a.636.636 0 0 1 .304-.304c.151-.08.338-.13.537-.142.196-.011.392.012.568.066.175.054.322.136.423.239zM19.024 13c-.452 3.779 5.64 2.992 5.525 6 .6-.854.86-3.174-.91-4.369-1.577-1.065-3.63-.482-4.615-1.631zm3.041-.942-.13-.116c.044.039.087.08.13.116z"/><path d="m24 14-.004-.006a2.562 2.562 0 0 0-.198-.325 1.596 1.596 0 0 0-.881-.628 3.597 3.597 0 0 0-.719-.118c-.245-.02-.496-.03-.75-.044-.507-.03-1.027-.084-1.534-.236a4.133 4.133 0 0 1-.752-.302 3.224 3.224 0 0 1-.659-.503c-.39-.382-.698-.816-1.006-1.237-.29-.422-.601-.827-.932-1.214a4.29 4.29 0 0 0-1.143-.94A3.802 3.802 0 0 0 14 8.022a3.21 3.21 0 0 1 1.52.195 4 4 0 0 1 1.317.88c.249.245.482.507.699.783 1.612-.334 2.919-.037 3.924.538l.022.012a4.952 4.952 0 0 1 1.02.774 6.1 6.1 0 0 1 .597.668l.014.019c.593.79.886 1.612.887 2.11zm.002.004-.004-.008.004.008zM14.027 9c.368.053.744.197.986.471.242.275.331.633.4.973.058.263.103.532.208.782.051.122.126.228.189.343.052.096.146.182.182.284a.089.089 0 0 1-.01.09c-.129.14-.475-.015-.606-.078a1.967 1.967 0 0 1-.596-.447c-.525-.572-.796-1.396-.78-2.146A2.45 2.45 0 0 1 14.028 9zm6.115 7c-.977 2.605 3.457 4.352 1.796 7 1.704-.672 2.513-2.702 1.806-4.313-.619-1.414-2.448-1.929-3.602-2.687z"/><path d="M15 20a3.55 3.55 0 0 1 .805-.48c.29-.121.591-.213.898-.272.61-.121 1.214-.151 1.721-.365a2.19 2.19 0 0 0 .68-.443c.193-.187.34-.42.431-.68a2.2 2.2 0 0 0 .11-.853 3.258 3.258 0 0 0-.199-.907c.226.247.39.548.48.877.088.33.098.676.028 1.01-.08.354-.25.678-.495.936-.241.25-.533.44-.853.557a3.454 3.454 0 0 1-.947.204c-.312.028-.613.035-.908.053A5.616 5.616 0 0 0 15 20zm6 3.497c-.097.066-.193.135-.3.195a2.63 2.63 0 0 1-.335.158c-.242.1-.508.152-.778.15-.73-.012-1.245-.472-1.547-.993-.205-.355-.347-.738-.591-1.076-.35-.483-.947-.872-1.646-.8-.285.03-.553.139-.711.349-.417.548.182 1.317.945 1.208a.956.956 0 0 0 .19-.044.718.718 0 0 0 .167-.087.656.656 0 0 0 .233-.285.571.571 0 0 0 .032-.362.503.503 0 0 0-.246-.31.577.577 0 0 1 .32.29c.06.132.075.276.044.415a.774.774 0 0 1-.218.392.928.928 0 0 1-.206.148c-.076.04-.157.073-.242.098-.172.05-.356.066-.536.047a1.565 1.565 0 0 1-.693-.255c-.236-.158-.411-.365-.625-.543a2.995 2.995 0 0 0-.851-.528 3.604 3.604 0 0 0-.686-.18 5.288 5.288 0 0 0-.359-.049c-.054-.005-.323-.055-.361-.026.37-.29.775-.546 1.207-.767a6.478 6.478 0 0 1 1.415-.514 4.737 4.737 0 0 1 1.583-.103c.274.028.541.087.796.175.267.09.513.22.728.381.213.17.385.373.506.599.11.21.192.431.244.657.157.677.1 1.726 1.143 1.88.055.01.11.016.165.02l.17.004c.118-.008.235-.022.35-.043.238-.047.47-.115.693-.2zm-5.987-.487-.026-.02.026.02z"/><path d="M14.967 12.754a1.05 1.05 0 0 1-.192.376 1.551 1.551 0 0 1-.64.463 2.584 2.584 0 0 1-.713.178c-.053.006-.108.01-.162.014a.755.755 0 0 0-.427.15.689.689 0 0 0-.25.36 1.65 1.65 0 0 0-.04.216c-.025.188-.029.383-.05.62a3.524 3.524 0 0 1-.364 1.157c-.244.486-.518.879-.455 1.44.042.363.239.607.5.859.473.457 1.53.662 1.294 1.788-.142.673-1.32 1.378-2.976 1.625.164-.024-.211-.623-.235-.662-.177-.263-.372-.51-.513-.796-.276-.554-.405-1.194-.291-1.801.12-.639.618-1.128 1.033-1.616.494-.58 1.013-1.341 1.127-2.095.027-.182.046-.411.09-.638.04-.252.124-.496.246-.723.084-.15.194-.284.326-.397a.378.378 0 0 0 .081-.483l-2.64-4.494 3.791 4.429a.494.494 0 0 0 .726.015.293.293 0 0 0 .01-.383c-.247-.3-.509-.605-.763-.906l-.954-1.117L10.611 8.1 8 5l2.857 2.901 2.038 2.134 1.017 1.069c.338.36.675.707 1.012 1.085l.056.064.012.1c.016.134.008.27-.025.401zm.266 10.481a2.431 2.431 0 0 1-.466-.47c.143.169.299.326.466.47z"/></g></g></svg>