<svg version="1.1" id="Слой_1" xmlns="http://www.w3.org/2000/svg" x="0" y="0" viewBox="0 0 32 32" xml:space="preserve"><style>.st0{fill:#fff}</style><switch><g><circle id="bg" class="st0" cx="16" cy="16" r="16"/><g id="BTC"><path d="M31.03 19.75c-2.07 8.3-10.48 13.36-18.79 11.29C3.94 28.97-1.11 20.56.96 12.26 3.03 3.95 11.44-1.1 19.74.97c8.31 2.07 13.36 10.48 11.29 18.78z" fill="#f7931a" transform="translate(.006 -.003)"/><path class="st0" d="M22.83 13.79c.31-2.06-1.26-3.17-3.41-3.91l.7-2.79-1.7-.42-.68 2.72c-.45-.11-.91-.22-1.36-.32l.68-2.74-1.7-.42-.7 2.79c-.37-.08-.73-.17-1.09-.26v-.01l-2.35-.59-.45 1.82s1.26.29 1.24.31c.69.17.81.63.79.99l-.79 3.18c.05.01.11.03.18.06-.06-.01-.12-.03-.18-.04l-1.11 4.46c-.08.21-.3.52-.78.4.02.02-1.24-.31-1.24-.31l-.84 1.95 2.21.55c.41.1.82.21 1.21.31l-.7 2.83 1.7.42.7-2.8c.46.13.91.24 1.36.35l-.69 2.78 1.7.42.7-2.82c2.9.55 5.08.33 6-2.3.74-2.11-.04-3.33-1.56-4.12 1.1-.24 1.94-.98 2.16-2.49zm-3.89 5.45c-.53 2.11-4.08.97-5.23.68l.93-3.74c1.15.29 4.85.86 4.3 3.06zm.53-5.48c-.48 1.92-3.44.95-4.4.71l.85-3.4c.96.24 4.05.69 3.55 2.69z" transform="translate(.006 -.003)"/></g></g></switch></svg>