<svg version="1.1" id="Слой_1" xmlns="http://www.w3.org/2000/svg" x="0" y="0" viewBox="0 0 32 32" xml:space="preserve"><switch><g><circle id="bg" cx="16" cy="16" r="16" fill="#fff"/><path id="LTC" d="M16.44 16.51l-1.62 5.44h8.71c.25 0 .45.2.45.44 0 .04-.01.08-.02.12l-.75 2.6c-.08.25-.31.43-.58.43H9.3l2.25-7.53-2.5.76.53-1.79 2.5-.76 3.17-10.57c.08-.25.31-.43.58-.43h3.38c.25 0 .45.2.45.45 0 .04-.01.08-.02.12l-2.67 8.94 2.5-.76-.54 1.79-2.49.75zm-.27 14.99h.04c8.66-.22 15.5-7.34 15.28-15.9C31.28 7.34 24.55.71 16.2.5h-.02C7.52.5.5 7.44.5 16c0 8.55 7.01 15.49 15.67 15.5z" fill="#345d9d"/></g></switch></svg>