<svg version="1.1" id="Слой_1" xmlns="http://www.w3.org/2000/svg" x="0" y="0" viewBox="0 0 24 24" xml:space="preserve"><style>.st0{fill:#fff}.st1{fill:#23292f}</style><g id="bg_1_"><circle id="bg_border_1px" class="st0" cx="12" cy="12" r="12"/><path id="bg_white_circle" class="st0" d="M12 .4C5.6.4.4 5.6.4 12c0 6.4 5.2 11.6 11.6 11.6 6.4 0 11.6-5.2 11.6-11.6C23.6 5.6 18.4.4 12 .4z"/></g><g id="Canvas_1_"><g id="xrp-symbol-black_1_"><path id="Vector_1_" class="st1" d="M18.3 4.6h2.6l-5.4 5.3c-1.9 1.9-5.1 1.9-7 0L3.1 4.6h2.6l4.1 4c1.2 1.2 3.2 1.2 4.5 0l4-4z"/><path id="Vector_2_1_" class="st1" d="M5.6 19.4H3.1L8.5 14c1.9-1.9 5.1-1.9 7 0l5.4 5.3h-2.6l-4.1-4.1C13 14 11 14 9.7 15.2l-4.1 4.2z"/></g></g></svg>