<svg width="16" height="16" fill="none" xmlns="http://www.w3.org/2000/svg"><path d="M8.385 2.05C8.895 1.467 9.747 1 10.427 1c.114.817-.226 1.633-.737 2.216-.51.583-1.305 1.05-2.099.992-.057-.758.34-1.633.794-2.158zm4.935 9.215s-1.872-.7-1.872-2.8c0-1.75 1.419-2.624 1.532-2.683a3.198 3.198 0 00-2.553-1.4c-1.077-.116-2.099.642-2.666.642-.567 0-1.418-.641-2.326-.641-1.19 0-2.269.7-2.836 1.75-1.248 2.216-.34 5.365.85 7.115.568.875 1.306 1.808 2.213 1.75.908-.059 1.192-.584 2.27-.584 1.077 0 1.36.583 2.325.525.965 0 1.532-.875 2.1-1.691.68-.992.963-1.925.963-1.983z" fill="#7A7A83"/></svg>