<svg width="16" height="16" fill="none" xmlns="http://www.w3.org/2000/svg"><path d="M2.943 5.535a.836.836 0 00-.614.253.826.826 0 00-.253.605v3.618c0 .242.084.446.253.614a.836.836 0 00.614.253.823.823 0 00.61-.253.843.843 0 00.248-.614V6.393a.826.826 0 00-.252-.605.826.826 0 00-.606-.253zm6.966-3.248l.597-1.102c.04-.073.025-.129-.042-.168-.073-.034-.13-.017-.168.05L9.69 2.178a4.136 4.136 0 00-1.691-.354c-.595 0-1.158.118-1.691.354l-.606-1.11c-.04-.068-.095-.085-.168-.051-.068.04-.082.095-.042.168l.597 1.102A3.689 3.689 0 004.642 3.58a3.262 3.262 0 00-.538 1.813h7.782c0-.656-.18-1.26-.539-1.813A3.705 3.705 0 009.91 2.287zM6.455 3.89a.315.315 0 01-.232.097.301.301 0 01-.227-.097.322.322 0 01-.092-.231c0-.09.03-.167.092-.232a.302.302 0 01.227-.096c.09 0 .167.032.232.096a.316.316 0 01.097.232c0 .09-.033.167-.097.231zm3.546 0a.302.302 0 01-.227.097.315.315 0 01-.232-.097.315.315 0 01-.096-.231c0-.09.032-.167.096-.232a.316.316 0 01.232-.096.323.323 0 01.32.328.32.32 0 01-.093.231zm-5.864 7.407c0 .258.09.477.269.656.18.18.398.27.656.27h.623l.008 1.91c0 .24.084.445.253.614.168.168.37.252.605.252a.836.836 0 00.614-.253.836.836 0 00.253-.614v-1.91h1.16v1.91c0 .241.085.446.253.614a.836.836 0 00.614.253.836.836 0 00.614-.253.836.836 0 00.253-.614v-1.91h.63c.253 0 .469-.09.649-.269a.891.891 0 00.269-.656V5.693H4.137v5.604zm8.918-5.762a.834.834 0 00-.605.248.823.823 0 00-.253.61v3.618c0 .242.084.446.253.614.168.169.37.253.605.253a.836.836 0 00.614-.253.836.836 0 00.253-.614V6.393a.823.823 0 00-.253-.61.844.844 0 00-.614-.248z" fill="#7A7A83"/></svg>