<svg width="18" height="18" viewBox="0 0 18 18" fill="none" xmlns="http://www.w3.org/2000/svg">
<path fill-rule="evenodd" clip-rule="evenodd" d="M6.26575 0.173715C6.26458 0.183252 5.6952 2.31716 5.00034 4.91588L3.73708 9.64069L2.70384 10.0178C2.13558 10.2253 1.66086 10.4047 1.6489 10.4167C1.61129 10.4543 0.944772 12.9647 0.96662 12.9866C0.978098 12.998 1.42903 12.8475 1.96874 12.6522C2.50838 12.4567 2.96575 12.3127 2.98504 12.3319C3.00433 12.3512 2.69299 13.5862 2.29322 15.0765C1.89338 16.5667 1.56628 17.7998 1.56628 17.8167C1.56628 17.8336 4.84367 17.8475 8.84946 17.8475H16.1326L16.5832 16.1371L17.0339 14.4267L12.5151 14.409C9.54301 14.3973 7.99634 14.3674 7.99634 14.3217C7.99634 14.2276 9.0983 10.0889 9.13245 10.0548C9.14732 10.0399 9.74483 9.81173 10.4602 9.54767C11.1757 9.28362 11.7829 9.04507 11.8095 9.0175C11.875 8.94984 12.505 6.59079 12.4776 6.51601C12.4656 6.48347 11.8681 6.67261 11.1496 6.93631C10.4311 7.20002 9.8372 7.40727 9.8298 7.39683C9.82234 7.38647 10.2453 5.77645 10.7696 3.81903C11.2939 1.86162 11.7244 0.236809 11.7264 0.208268C11.7294 0.163073 6.27114 0.12852 6.26575 0.173715Z" fill="#00A3FF"/>
</svg>
