<svg width="18" height="18" viewBox="0 0 18 18" fill="none" xmlns="http://www.w3.org/2000/svg">
<path fill-rule="evenodd" clip-rule="evenodd" d="M6.39153 4.67386C4.94567 7.13262 3.7627 9.14777 3.7627 9.15197C3.7627 9.15616 4.48352 9.60931 5.36453 10.159C6.24554 10.7086 7.42764 11.4461 7.99141 11.7978C8.5552 12.1495 9.021 12.4373 9.02654 12.4373C9.03524 12.4373 14.2663 9.17952 14.2881 9.16055C14.2925 9.15669 13.9296 8.53028 13.4815 7.76854C13.0335 7.00681 11.8492 4.99304 10.8499 3.29348C9.8505 1.59393 9.03002 0.20339 9.0266 0.20339C9.02316 0.20339 7.83738 2.2151 6.39153 4.67386ZM3.76796 10.2281C3.76796 10.2314 4.43506 11.1886 5.25039 12.3552C6.06572 13.5218 7.04103 14.9173 7.41773 15.4563C7.79444 15.9953 8.30893 16.7316 8.56105 17.0925C8.81318 17.4535 9.02353 17.7474 9.02852 17.7458C9.03907 17.7422 14.2878 10.2341 14.2831 10.2293C14.2813 10.2275 13.0979 10.9636 11.6532 11.8649L9.02662 13.5037L6.421 11.8782C4.98792 10.9842 3.80472 10.2458 3.79168 10.2374C3.77863 10.2289 3.76796 10.2247 3.76796 10.2281Z" fill="#7B61FF"/>
</svg>
