<svg width="18" height="18" viewBox="0 0 18 18" fill="none" xmlns="http://www.w3.org/2000/svg">
<path d="M13.0257 8.34671C13.9731 7.86453 14.5658 7.01532 14.4274 5.60059C14.2409 3.66722 12.5701 3.01892 10.4609 2.83429L10.4605 0.152542H8.82636L8.8259 2.76376C8.39593 2.76376 7.95763 2.7722 7.5213 2.78095L7.52095 0.152898L5.88824 0.152746L5.88793 2.83383C5.53408 2.84105 5.18659 2.84792 4.84729 2.84792V2.83998L2.59322 2.83907L2.59352 4.58222C2.59352 4.58222 3.80034 4.55954 3.78046 4.58156C4.44214 4.58202 4.65819 4.96592 4.72032 5.29729L4.72083 8.35236V12.6437C4.69169 12.8517 4.5691 13.184 4.10644 13.1846C4.12749 13.2031 2.91768 13.1844 2.91768 13.1844L2.59352 15.1336H4.71981C5.11602 15.1341 5.5053 15.1402 5.88722 15.1433L5.88864 17.8554L7.52095 17.8558L7.52049 15.1722C7.96958 15.1813 8.40305 15.1853 8.82646 15.1847L8.826 17.8558H10.4601L10.4611 15.1483C13.2079 14.9906 15.131 14.2993 15.3701 11.7219C15.5628 9.64688 14.5853 8.72064 13.0257 8.34671ZM7.56036 4.69988C8.48202 4.69988 11.3806 4.40664 11.381 6.33025C11.3806 8.17444 8.48293 7.959 7.56036 7.959V4.69988V4.69988ZM7.55964 13.1978L7.56036 9.60432C8.66771 9.60402 12.1409 9.28597 12.1414 11.4003C12.1419 13.4278 8.66771 13.197 7.55964 13.1978Z" fill="#FF8A00"/>
</svg>
