<svg width="180" height="68" fill="none" xmlns="http://www.w3.org/2000/svg"><path d="M10.1 30.344c0-2.034.027-4.072-.024-6.106-.023-.933.338-1.26 1.273-1.237 2.059.053 4.125.03 6.187.037a13.16 13.16 0 01.03 7.336 11.793 11.793 0 01-7.466-.03zm22.23 7.289c0 2.04 0 4.078.047 6.119.027.927-.337 1.27-1.266 1.247-2.065-.047-4.134-.047-6.2-.047a11.735 11.735 0 01-.024-7.316 11.951 11.951 0 017.443-.003z" fill="#D1D1D1"/><path d="M24.978 23.068c2.076 0 4.152 0 6.228-.057.877-.023 1.215.334 1.198 1.164-.044 2.047-.05 4.095-.071 6.139-2.265.957-4.607.423-6.92.333a.842.842 0 01-.537-.238.823.823 0 01-.245-.529c-.091-2.267-.648-4.584.347-6.812zM10.1 37.996v-.333a2.22 2.22 0 01.523-.333c2.275-.19 4.55-.454 6.805.173.166.128.297.296.381.487a27.32 27.32 0 01.034 6.435 1.723 1.723 0 01-.368.497c-2.164.017-4.327.04-6.487.05-.314 0-.675.084-.83-.333.148-2.218.25-4.432-.058-6.643z" fill="#C9C9C9"/><path d="M17.526 37.65h-7.088c-.361-1.668-.068-3.362-.176-5.039-.04-.663.176-1.33-.162-1.94a.566.566 0 010-.334l7.348-.057.24.197a16.68 16.68 0 01.054 6.936l-.216.237zm0 .343v-.333l-.027.023c2.288-.974 4.65-.45 6.993-.333.195.075.364.204.486.373-.022 2.414-.047 4.827-.074 7.24h-.169l-.165-.024c-2.242-.35-4.516.12-6.75-.25-.284-1.634-.041-3.281-.132-4.922-.034-.597.175-1.214-.162-1.774zm14.804-.36l-7.345.073-.138-.14a1.194 1.194 0 01-.071-.614c.067-1.6.027-3.2.034-4.801 0-1.12.337-1.76 1.664-1.667 1.94.153 3.902-.164 5.842.173l.014 6.976z" fill="#FEFEFE"/><path d="M32.316 30.667c-1.9 0-3.8.047-5.697 0-1.013-.03-1.408.334-1.35 1.334.067 1.264.033 2.535 0 3.802 0 .526.192 1.12-.338 1.537-.692-.804-.47-1.78-.48-2.695-.04-4.148.308-3.748-3.942-3.798-.982 0-2.025.234-2.912-.44l-.136-.103.065-7.266 7.425.03c0 1.98.047 3.965-.02 5.945-.037 1.024.337 1.334 1.35 1.314 2.008-.063 4.02 0 6.028 0l.007.34z" fill="#FEFEFE"/><path d="M101.874 29.747v13.148c-.078-.07-.223-.143-.223-.217.067-4.311-.149-8.626.223-12.93zm12.485 13.205c0-.207 0-.417-.017-.624v-6.736c0-.53-.182-1.107.28-1.564.016 2.768.033 5.536.051 8.303.013.234.104.56-.314.62z" fill="#D1D1D1"/><path d="M17.863 44.649c2.234.176 4.503-.354 6.72.283h-7.088a.992.992 0 01.05-.277c.095-.166.203-.163.318-.006zM10.1 30.67c.732 1.564.182 3.218.338 4.825.067.707 0 1.424 0 2.138-.112.02-.225.03-.338.033V30.67z" fill="#FEFEFE"/><path d="M10.1 37.997c.5 2.183.517 4.448.05 6.639a44.475 44.475 0 01-.05-6.64z" fill="#C9C9C9"/><path d="M66.1 31.66v-1.646a.395.395 0 01.474-.106c.052.025.099.06.136.105 0 .667-.03 1.334-.044 2.001l-.293-.083a.373.373 0 01-.274-.27zm.367 11.021c-.408-.636-.364-1.333-.337-2.054 1.168.514.654 1.298.337 2.054zm81.975-4.651c.125-1.224-.337-2.488.26-3.668.071 1.227.5 2.487-.26 3.668zm-33.931 2.588c.084-2.195-.142-4.395.124-6.586a5.01 5.01 0 00-.49-2.028 5.07 5.07 0 00-1.278-1.66c-.399-.83-1.192-.634-1.88-.7l.027.026c-.726-.7-1.566-.333-2.363-.24-.607.03-1.192.23-1.688.577-1.282.9-1.275.91-1.704-.333-1.127-.114-2.251-.244-3.375.076-.365 1.908-.156 3.835-.149 5.75 0 2.467-.226 4.94.149 7.398a13.58 13.58 0 003.375.054c.793-.284.337-.934.375-1.394.131-2.518-.247-5.052.28-7.556.56-.794 1.103-1.604 2.075-1.977h1.293l1.229 1.027c.077.21.158.42.239.63.021 1.387 0 2.774.071 4.155v1.11c-.06 1.334-.243 2.648.183 3.951 1.117.168 2.253.184 3.375.047a.405.405 0 00.135-.281.4.4 0 00-.108-.292c.226-.58.084-1.184.105-1.754zM77.41 37.95c-.726 0-.544.726-.652 1.277a3.8 3.8 0 00-.202.42c-1.918 1.784-3.555 1.437-5.01-1.067-.03-.637-.063-1.274-.094-1.907v-.694l.081-1.934c.523-1.054 1.134-2.02 2.39-2.334l1.623.257 1.074 1.05c.192.56.07 1.474 1.07 1.25.86-.19 1.981.667 2.582-.59a2.307 2.307 0 00-.675-2 2.187 2.187 0 00-.522-.818 2.22 2.22 0 00-.828-.516c-.645-.667-1.479-.88-2.363-.944a6.946 6.946 0 00-3.01 0c-2.488.303-4.162 1.604-4.976 3.958l-.162.87a1.363 1.363 0 00-.25 1.114 4.76 4.76 0 00.024 1.977c.24 2.241 1.11 4.098 3.26 5.165l1.074.434.631.09a5.384 5.384 0 003.537.023c2.576-.45 4.05-1.974 4.584-4.705-.949-.997-2.143-.376-3.186-.376zM170 33.675c-.219-2.601-.965-3.668-3.038-4.265a4.83 4.83 0 00-2.329 0c-.523.05-1.039.113-1.373.59-.476.194-.892.444-.966 1-.266.454-.462.558-1.012.19-.837-.553-1.168-1.787-2.417-1.77a4.601 4.601 0 00-2.322 0c-1.138 0-1.711 1.027-2.646 1.384-.449-.247.209-.9-.412-1.084-.831-.04-1.661-.043-2.488-.127-.827-.083-1.012.287-1.012 1.04 0 3.845-.031 7.694-.041 11.538 0 .334-.186.847.493.794h3.038c.712-.234.364-.827.371-1.24.034-2.215 0-4.425 0-6.64.564-.953.459-2.287 1.688-2.87a2.622 2.622 0 011.63-.057l.307.22.709 1.364c-.02 2.727-.054 5.455-.044 8.186 0 .353-.311.92.405 1.037h3.038c.719-.14.384-.707.388-1.067.023-2.271 0-4.542-.02-6.816.533-.977.263-2.41 1.687-2.88a2.844 2.844 0 011.627-.048l.783.877c.419 2.845.091 5.706.203 8.553.017.46-.432 1.12.391 1.384h3.038v-.567l.057-.02c.213-.647.081-1.31.108-1.964.102-2.26-.172-4.508.159-6.742zm-17.67-3.778c-.219-.02-.438-.053-.654-.07.22-.034.446-.01.654.07zM51.535 36.012c-.338-.967-.8-1.774-1.968-2-.368-.074-.675-.517-1.013-.794.338-.27.605-.667.976-.79.884-.334 1.28-1 1.542-1.807.83-2.488-.405-4.592-3.223-5.522l-.901-.127c-3.28-.57-6.585-.224-9.88-.234-.759.06-.459.644-.459 1-.02 5.398-.02 10.797 0 16.197 0 .37-.273.94.466 1 3.278-.027 6.568.403 9.829-.28 1.043.08 1.873-.4 2.663-1a2.215 2.215 0 001.32-1.358 1.484 1.484 0 00.604-1 5.214 5.214 0 00.044-3.285zm-11.04-8.55v-.093h.09c-.02.024-.03.05-.05.074 1.731-.48 3.47-.377 5.208-.037.596.287 1.1.733 1.455 1.287.411.637.31 1.297.084 1.96-.246.334-.496.668-.743 1.001-1.977.964-4.006.88-6.075.284l-.044-2.628c-.128-.64-.354-1.287.101-1.88l-.027.033zm7.337 10.778a3.372 3.372 0 01-.782 1.246c-.35.354-.774.627-1.243.801-1.755.254-3.514.45-5.255-.076a.363.363 0 00.047.076h-.101v-.1h.047c-.5-.817-.226-1.667-.118-2.54l.067-2.872c1.644-.533 3.301-.37 4.959-.096 1.1.333 2.025.867 2.383 2.044a1.22 1.22 0 01-.004 1.517zm47.224-4.889c-.641-2.584-2.822-3.28-5.002-3.981a7.514 7.514 0 00-3.014.033c-3.18.377-4.628 2.474-5.367 5.272v2.638c.543 3.477 2.271 5.355 5.302 5.762.89.27 1.836.3 2.741.09a2.42 2.42 0 001.35-.237c2.09-.947 3.787-2.247 4.307-4.622.21-1.67.405-3.34-.317-4.955zM91.68 37.22c-.398.887-.222 2.001-.924 2.741-1.35 1.414-3.997.837-4.726-.97-1.012-2.471-.358-5.882 1.35-7.043.581-.633 1.25-.543 1.945-.236.989.383 1.57 1.163 2.048 2.044.432.49.307 1.15.537 1.704-.088.586.226 1.217-.226 1.76h-.004z" fill="#D1D1D1"/><path d="M148.702 34.352c-.533-2.964-2.555-4.368-5.339-4.978a7.518 7.518 0 00-3.015.026c-2.926.307-4.684 2.334-5.292 5.165-.803 3.748 1.239 8.183 4.911 8.433a5.99 5.99 0 003.834 0c2.589-.426 4.621-2.607 4.641-4.981.382-1.194-.064-2.455.26-3.665zm-3.669 3.208c-.226.577.044 1.313-.587 1.76a4.246 4.246 0 01-1.755 1.4c-.803.428-1.58.27-2.346-.102-1.421-1.668-1.64-3.669-1.35-5.72.189-1.356.614-2.627 2.109-3.167a1.259 1.259 0 011.516-.02c.611.547 1.586.69 1.843 1.627.604.457.337 1.184.567 1.758.034.82.034 1.643.003 2.464zm-11.341.41c-1.043-.074-2.123-.2-3.125 0-.716.14-.281 1.177-.702 1.667-1.445 1.577-3.95 1.667-5.023-1.044l-.084-1.274v-2c.11-.667.223-1.334.337-2a5.067 5.067 0 011.87-1.598.404.404 0 00-.05-.15c-.22.05-.119-.094.097-.067a.757.757 0 00.152 0 2.47 2.47 0 00-.199.21l1.539.104 1.435 1.163c.155 2.041 1.741 1.09 2.764 1.264 1.151.194 1.182-.43.82-1.254-.138-.473-.145-1-.59-1.334a2.145 2.145 0 00-.536-.803 2.18 2.18 0 00-.838-.49c-.614-.734-1.472-.897-2.363-.977a6.946 6.946 0 00-3.01 0c-3.038.493-4.952 2.334-5.087 4.898a4.945 4.945 0 00-.017 4.118c.355 2.431 2.154 4.195 4.692 4.595a5.365 5.365 0 003.567 0c2.613-.333 3.855-2.07 4.53-4.365.037-.243.165-.64-.179-.663zm-5.36-6.336a.904.904 0 01.162.21 2.32 2.32 0 00-.162-.21zm1.533 8.003a5 5 0 01.448-.517c-.054.264-.162.477-.448.534v-.017zm-65.288-7.426c.675.027 1.441.274 2.09-.22a.611.611 0 00-.392-.173l-.159-.144a1.22 1.22 0 00.196-.156c.145-.52.213-1.034-.125-1.504h.523c-.928-.947-2.126-.137-3.149-.454l-.212-3.2a4.666 4.666 0 00-3.615 0c-.247.976-.095 1.963-.065 2.947-.428.737-1.84-.44-1.98 1.124-.15 1.62.593 1.98 1.947 1.93.06 2.541-.172 5.089.104 7.626.115 1.667 1.219 2.468 2.66 2.978a5.241 5.241 0 003.375 0 .597.597 0 00.696-.28c0-.7.121-1.424-.338-2.054-.742-.47-1.772.12-2.433-.644-.493-2.197-.02-4.438-.294-6.645-.044-.81.283-1.164 1.171-1.13z" fill="#D1D1D1"/><path d="M17.863 44.648h-.338V37.98c.763 2.198.119 4.455.338 6.67z" fill="#FEFEFE"/><path d="M17.583 30.394c1.853 0 3.713.073 5.552-.037 1.448-.087 1.85.487 1.779 1.824-.088 1.71 0 3.431 0 5.145-.03.079-.054.159-.074.24l-7.341.107c.031-2.428.06-4.854.084-7.28z" fill="#C9C9C9"/><path d="M100.534 42.131c0-4.037-.017-8.077-.051-12.12-.712-.967-1.718-.234-2.572-.424-1.103-.247-1.414.25-1.384 1.334.088 2.928.054 5.862.04 8.796-.016 3.495-.03 3.495 3.612 3.191.486-.086.358-.477.355-.777z" fill="#D1D1D1"/><path d="M24.614 26.683c0 3.334 0 3.334-3.335 3.334-3.416-.01-3.416-.01-3.416-3.424 0-3.245 0-3.245 3.25-3.245h.17c3.33 0 3.33 0 3.33 3.335z" fill="#FEFEFE"/><path d="M98.36 24.672h-1.178c-.392 0-.675.183-.624.593.107.897-.304 1.838.253 2.691a10.69 10.69 0 003.375.057c1.046-2.4.54-3.345-1.826-3.341zm21.17 14.945a.628.628 0 00-.115-.253c-.952-.02-1.904-.04-2.852-.067-.432 0-.854.06-.787.59.125 1-.378 2.057.267 3.001l.338.047h3.037a.681.681 0 00.125-.277 3.637 3.637 0 00-.013-3.041zm-63.465-10.03a11.8 11.8 0 01-1.85 0c-1.114-.144-1.394.28-1.374 1.36.071 3.591 0 7.19.044 10.784 0 .41-.337 1 .395 1.227h3.038c.121-.077.337-.157.337-.237.034-4.145.044-8.293.068-12.437.024-.504-.162-.71-.658-.697zM53.168 27.9c.702.63 2.559.63 3.264 0 .706-.63.696-2.121-.111-3.168h-3.038c-.803 1.047-.783 2.567-.115 3.168z" fill="#D1D1D1"/></svg>