<svg width="180" height="68" fill="none" xmlns="http://www.w3.org/2000/svg"><path d="M10 19h11.73c2.234 0 3.91.567 5.151 1.513 1.366 1.134 2.11 2.773 2.11 4.79 0 2.331-.93 3.781-2.792 4.663v.126c2.482.82 3.91 3.089 3.91 5.799 0 2.584-.993 4.6-2.607 5.861-1.365 1.008-3.103 1.45-5.462 1.45H10V19zm10.55 9.454c1.242 0 2.173-.694 2.173-2.143 0-1.387-.93-2.08-2.234-2.08h-4.034v4.16h4.096v.063zm.56 9.39c1.427 0 2.482-.882 2.482-2.457 0-1.702-1.117-2.458-2.483-2.458h-4.592v4.979h4.592v-.064zM31.164 19h6.144v24.265h-6.144V19zm7.386 15.63c0-5.483 3.475-9.138 8.874-9.138 5.4 0 8.813 3.718 8.813 9.138 0 5.483-3.413 9.139-8.813 9.139s-8.875-3.655-8.875-9.139zm11.543 0c0-3.025-.93-4.916-2.793-4.916-1.862 0-2.73 1.891-2.73 4.916 0 3.026.868 4.98 2.73 4.98 1.862-.064 2.793-1.954 2.793-4.98zm6.827 0c0-5.483 3.476-9.138 8.875-9.138 5.4 0 8.751 3.655 8.751 9.138 0 5.483-3.413 9.139-8.813 9.139-5.337 0-8.813-3.655-8.813-9.139zm11.544 0c0-3.025-.931-4.916-2.793-4.916s-2.73 1.891-2.73 4.916c0 3.026.868 4.98 2.73 4.98 1.862-.064 2.793-1.954 2.793-4.98zm7.323-8.697h5.71v2.584h.124c1.118-2.017 2.67-3.088 5.152-3.088 2.172 0 3.786 1.071 4.592 2.962h.125c1.365-2.269 3.165-2.962 5.275-2.962 3.972 0 5.648 2.962 5.648 6.933v10.84h-5.958v-9.77c0-1.764-.559-2.898-2.048-2.898-1.49 0-2.235 1.386-2.235 3.277v9.39h-5.958v-9.768c0-1.765-.558-2.9-2.048-2.9s-2.234 1.387-2.234 3.278v9.39h-6.145V25.934zm34.135 15h-.062v2.269h-5.709V19h5.958v8.698h.124c1.117-1.513 2.668-2.332 4.841-2.332 4.282 0 6.765 3.907 6.765 9.138 0 5.861-2.669 9.265-7.138 9.265-1.862 0-3.786-.882-4.779-2.836zm5.772-6.492c0-2.773-.993-4.6-2.793-4.6-1.861 0-2.979 1.827-2.979 4.6 0 2.773 1.18 4.601 2.979 4.601 1.8 0 2.793-1.765 2.793-4.6zm6.827.126c0-5.42 3.538-9.138 8.627-9.138 2.545 0 4.469.819 5.958 2.269 1.986 1.953 2.855 4.979 2.793 8.508h-11.42c.249 2.143 1.242 3.277 3.042 3.277 1.055 0 1.986-.504 2.358-1.638h5.772c-.993 3.97-4.034 5.924-8.317 5.924-5.275-.063-8.813-3.718-8.813-9.202zm5.958-1.827h5.462c-.124-2.08-1.241-3.152-2.669-3.152-1.675-.063-2.606 1.135-2.793 3.152zm18.185-3.845h.124c1.241-2.395 2.855-3.34 4.903-3.34.497 0 .807.063.993.189v5.294h-.124c-3.538-.63-5.586 1.071-5.586 4.979v7.248h-6.02V25.933h5.71v2.962zm6.641 14.37h5.772c.248.756.993 1.45 2.42 1.45 1.924 0 2.607-1.198 2.607-3.026v-1.26h-.124c-.931 1.134-2.234 1.953-4.096 1.953-3.662 0-6.889-2.773-6.889-8.193 0-4.979 2.606-8.823 6.578-8.823 2.297 0 3.662.945 4.593 2.395h.124V25.87H170v15c0 2.773-.931 4.916-2.358 6.176-1.49 1.324-3.6 1.891-6.021 1.891-4.592.063-7.757-1.828-8.316-5.672zm11.047-9.328c0-2.143-.993-3.907-2.731-3.907-1.675 0-2.73 1.512-2.73 3.907 0 2.332 1.055 3.97 2.73 3.97 1.676 0 2.731-1.7 2.731-3.97z" fill="#D1D1D1"/></svg>