<svg width="180" height="68" fill="none" xmlns="http://www.w3.org/2000/svg"><path fill-rule="evenodd" clip-rule="evenodd" d="M22.402 59h3.722V39h-3.722v20zm13.644-.3h3.333V46.081L53.411 59V39.3h-3.324v12.403L36.046 39v19.7zm24.975-4.844c1.815 1.422 3.993 2.244 6.327 2.244 2.275 0 3.87-.788 3.87-2.527 0-1.515-1.018-2.109-2.8-2.773l-2.884-1.008c-2.66-.95-4.682-2.337-4.682-5.526 0-3.411 3.062-5.266 6.723-5.266 2.243 0 4.287.567 5.884 1.572v3.383c-1.66-1.235-3.478-2.085-5.812-2.085-2.01 0-3.513.755-3.513 2.328 0 1.422.943 1.991 2.604 2.563l3.214 1.134c3.114 1.102 4.544 2.81 4.544 5.62 0 3.533-3.092 5.485-7.148 5.485-2.665 0-4.932-.75-6.327-1.697v-3.447zM83.18 59h3.72V39h-3.72v20zm21.174-3.027c4.195 0 6.436-2.706 6.436-6.978 0-4.303-2.243-7-6.436-7h-4.147v13.978h4.147zM96.819 39h7.659c5.895 0 9.707 3.906 9.707 9.995 0 6.094-3.812 10.005-9.707 10.005h-7.659V39zm35.972 0v2.995h-9.005v4.813h8.077v2.96h-8.078v6.205h9.006V59h-12.403V39h12.403zm13.207 9.056h3.693c2.186 0 3.417-1.206 3.417-3.06 0-1.855-1.231-3.063-3.417-3.063h-3.693v6.125-.002zm0 2.828V59h-3.285V39h7.04c4.014 0 6.611 2.08 6.611 5.995 0 3.349-1.441 5.272-4.512 5.766L158.837 59H155.1l-6.764-8.114H146l-.002-.002zM21.102 19.297c1.456-.536 2.59-2.144 2.59-4.355 0-3.684-2.59-5.594-6.733-5.594H10v20.568h7.605c4.143 0 6.733-2.044 6.733-5.896 0-2.178-1.36-4.087-3.236-4.723zm-7.834-1.306v-5.627h3.66c2.3 0 3.528.838 3.528 2.78 0 1.942-1.23 2.847-3.528 2.847h-3.66zm0 2.88h4.272c2.268 0 3.497 1.138 3.497 3.015 0 1.842-1.23 3.016-3.495 3.016H13.27V20.87l-.002.002zm26.254 9.379c4.758 0 7.963-2.881 7.963-8.508V9.348h-3.366V21.34c0 3.953-1.619 5.797-4.597 5.797-2.977 0-4.595-1.844-4.595-5.797V9.35h-3.366v12.359c0 5.66 3.236 8.542 7.961 8.542zm15.889-1.81c1.391 1.007 3.658 1.81 6.31 1.81 4.048 0 7.122-2.078 7.122-5.828 0-2.981-1.423-4.79-4.532-5.963l-3.203-1.206c-1.65-.601-2.59-1.205-2.59-2.712 0-1.675 1.489-2.479 3.496-2.479 2.33 0 4.143.904 5.794 2.211v-3.585c-1.586-1.07-3.626-1.674-5.86-1.674-3.656 0-6.7 1.977-6.7 5.594 0 3.383 2.008 4.856 4.661 5.86l2.882 1.073c1.78.703 2.783 1.34 2.783 2.948 0 1.842-1.586 2.68-3.852 2.68-2.33 0-4.499-.872-6.312-2.378v3.65zM80.87 9.349h-3.365v20.566h3.365V9.348zm9.603 20.541h3.243V16.51l13.652 13.699V9.318h-3.235v13.15L90.474 9v20.89zm37.929-20.536v3.08h-8.739v4.95h7.837v3.045h-7.837v6.38h8.739v3.112h-12.039V9.353h12.039zm7.837 19.074c1.392 1.006 3.657 1.809 6.311 1.809 4.046 0 7.121-2.077 7.121-5.828 0-2.981-1.424-4.79-4.531-5.963l-3.205-1.204c-1.651-.604-2.589-1.207-2.589-2.714 0-1.675 1.488-2.479 3.495-2.479 2.33 0 4.143.905 5.794 2.211v-3.584C147.05 9.603 145.01 9 142.777 9c-3.657 0-6.7 1.977-6.7 5.594 0 3.383 2.007 4.856 4.66 5.86l2.882 1.073c1.78.703 2.783 1.34 2.783 2.948 0 1.842-1.584 2.68-3.852 2.68-2.33 0-4.499-.87-6.31-2.378v3.65zm20.328 0c1.392 1.006 3.658 1.809 6.311 1.809 4.047 0 7.121-2.077 7.121-5.828 0-2.981-1.424-4.79-4.531-5.963l-3.205-1.204c-1.65-.604-2.589-1.207-2.589-2.714 0-1.675 1.489-2.479 3.495-2.479 2.33 0 4.144.905 5.794 2.211v-3.584C167.379 9.603 165.34 9 163.106 9c-3.658 0-6.7 1.977-6.7 5.594 0 3.383 2.007 4.856 4.66 5.86l2.882 1.073c1.78.703 2.784 1.34 2.784 2.948 0 1.842-1.586 2.68-3.853 2.68-2.33 0-4.498-.87-6.311-2.378v3.65z" fill="#D1D1D1"/></svg>