<svg width="180" height="68" fill="none" xmlns="http://www.w3.org/2000/svg"><path d="M24.068 34.502c0 .845.666 1.505 1.52 1.505.852 0 1.518-.66 1.518-1.505 0-.845-.666-1.505-1.519-1.505-.852.026-1.519.686-1.519 1.505zm12.736-1.479c-.852 0-1.518.66-1.518 1.505 0 .845.666 1.505 1.518 1.505.853 0 1.52-.66 1.52-1.505 0-.845-.667-1.505-1.52-1.505zm0 11.303c-.852 0-1.518.66-1.518 1.505 0 .845.666 1.505 1.518 1.505.853 0 1.52-.66 1.52-1.505 0-.845-.667-1.505-1.52-1.505z" fill="#D1D1D1"/><path d="M40.028 20.585c-1.518-1.875-4.236-1.954-5.835-.476l-.186.185-.373.29c-1.52 1.216-3.784 1.11-5.196-.29v-.105a4.17 4.17 0 00-1.785-1.03c-.107 0-.293-.106-.373-.106h-1.52c-.107 0-.186 0-.293.106h-.187c-.106 0-.186.106-.293.106 0 0-.106 0-.106.105-.107 0-.187.106-.293.106 0 0-.107 0-.107.105-.107.106-.186.106-.293.185 0 0-.107 0-.107.106-.106.105-.186.105-.293.185l-.106.105-.187.185-.373.29c-1.518 1.215-3.783 1.11-5.089-.29 0 0-.106 0-.106-.105l-.187-.185c-.56-.476-1.226-.845-1.972-.925h-1.705c0 .106-.107.106-.186.185h-.027c-.48.185-.933.37-1.332.74l-.107.105-.293.29c-.373.37-.56.846-.746 1.216 0 .105-.107.184-.107.29 0 .106-.106.185-.106.37-.107.66-.107 1.32.106 1.954 0 .106.107.185.107.29v.106c0 .106.107.185.107.29.106.106.106.186.186.37.187.106.373.29.48.37l.186.185.187.185c1.412 1.4 1.412 3.829-.107 5.334-.186.185-.48.476-.56.66-.106.106-.106.185-.186.37v.106c-.107.105-.107.185-.186.29v.106c0 .106-.107.185-.107.29v.106c0 .106 0 .185-.107.29v1.4c0 .106 0 .185.107.29v.106c.187.66.56 1.32 1.12 1.875 1.518 1.505 1.518 3.935 0 5.414l-.107.106-.187.184v.106c-.107.106-.187.185-.187.29 0 0 0 .106-.106.106-.107.106-.107.185-.187.29l-.106.106c0 .106-.107.106-.107.185 0 .08-.106.106-.106.185 0 .106 0 .106-.107.185-.186.37-.293.845-.293 1.215v.74c.107.29.107.554.293.739 0 .105.107.184.107.184s0 .106.106.106c0 .106.107.185.107.29 0 0 0 .106.106.106.107.185.187.29.293.37 0 0 0 .105.107.105 0 0 0 .106.107.106 0 .106.106.106.106.106l.107.105c.106.106.186.106.186.185l.107.106s.107 0 .107.105c.106.106.186.185.293.185 0 0 .106 0 .106.106.107.106.187.106.293.185h.053c.107.105.187.105.373.105.107 0 .294.106.374.106h.106c.107 0 .187 0 .293.106h.853c.293 0 .48-.106.746-.106h.106c.107 0 .187-.105.294-.105h.053c.106 0 .186-.106.293-.106h.107c.186-.106.48-.29.666-.37l.293-.29.106-.106c1.519-1.584 3.97-1.584 5.462 0 1.706 1.77 4.53 1.69 6.129-.29 1.119-1.4 1.119-3.46 0-4.965-1.52-1.875-4.237-1.954-5.835-.476l-.187.185-.373.29c-1.519 1.216-3.784 1.11-5.196-.29l-.186-.185-.293-.37c-1.226-1.505-1.12-3.75.293-5.149.852-.74 1.225-1.77 1.225-2.8v-.29c0-.924-.373-1.875-1.119-2.535 0-.105-.106-.105-.106-.185l-.293-.37c-1.226-1.505-1.12-3.75.293-5.149l.106-.106.107-.105c1.519-1.585 3.97-1.585 5.462 0l.107.105.106.106.187.185c.106 0 .106.106.186.106s.107.105.187.105.106.106.186.106.107.105.187.105.106.106.186.106.107.106.187.106.106 0 .186.105c.107 0 .107 0 .187.106h1.599c.106 0 .186 0 .293-.106h.186c.107 0 .187-.105.293-.105h.107c.106 0 .186-.106.373-.185.373-.185.746-.476 1.039-.74l.107-.105c1.518-1.585 3.97-1.585 5.462 0 1.598 1.875 4.53 1.77 6.048-.185 1.012-1.717 1.012-3.776-.107-5.176zM61.53 32.178c-.56-.555-1.039-.925-1.705-1.215-.56-.29-1.225-.475-2.078-.475-.746 0-1.519.184-2.078.475-.56.29-1.04.66-1.412 1.215a4.824 4.824 0 00-.853 1.69 7.241 7.241 0 00-.293 1.954c0 .634.106 1.32.373 1.954.186.66.56 1.11.932 1.585.373.475.933.845 1.52 1.109.559.29 1.225.37 1.97.37.854 0 1.52-.185 2.08-.476.559-.29 1.118-.66 1.598-1.215l1.971 2.06a6.389 6.389 0 01-2.557 1.77c-.933.37-1.972.554-3.118.554-1.119 0-2.265-.185-3.197-.554a7.378 7.378 0 01-2.451-1.585 7.3 7.3 0 01-1.6-2.43c-.372-.924-.559-2.06-.559-3.168 0-1.11.187-2.245.56-3.17.373-.924.932-1.769 1.599-2.535a7.38 7.38 0 012.45-1.584c.933-.37 2.08-.555 3.198-.555 1.12 0 2.158.185 3.118.555 1.039.37 1.891 1.03 2.637 1.77l-2.104 1.9zm6.395 3.46c0 .739.107 1.504.373 2.059.187.66.56 1.215.933 1.69.373.475.932.845 1.519 1.03.559.29 1.332.37 2.078.37.746 0 1.412-.106 2.078-.37.56-.29 1.12-.66 1.519-1.03.373-.475.746-1.03.932-1.69.187-.66.373-1.32.373-2.06s-.106-1.505-.373-2.06c-.186-.66-.56-1.215-.932-1.69a3.184 3.184 0 00-1.519-1.03c-.56-.29-1.332-.37-2.078-.37-.746 0-1.412.106-2.079.37-.56.29-1.119.66-1.518 1.03-.373.475-.746 1.03-.933 1.69-.186.66-.373 1.32-.373 2.06zm-3.01 0c0-1.11.186-2.14.559-3.09a7.482 7.482 0 011.705-2.536c.746-.74 1.519-1.32 2.558-1.69.933-.37 1.972-.66 3.117-.66 1.146 0 2.159.185 3.118.66a7.56 7.56 0 012.558 1.69c.746.74 1.225 1.585 1.705 2.535.373.925.56 1.955.56 3.09 0 1.11-.187 2.14-.56 3.09a7.482 7.482 0 01-1.705 2.535c-.746.74-1.52 1.215-2.558 1.69-.933.37-1.972.66-3.118.66-1.119 0-2.158-.184-3.117-.66a7.56 7.56 0 01-2.558-1.69c-.746-.74-1.225-1.505-1.705-2.535-.267-.95-.56-1.98-.56-3.09zm18.784 7.578h2.824V28.27h-2.824v14.947zm-.666-20.387c0-.554.186-1.03.56-1.505.372-.37.852-.66 1.411-.66.56 0 1.04.185 1.412.66.373.37.56.924.56 1.505 0 .581-.187 1.03-.56 1.505-.373.37-.852.66-1.412.66-.56 0-1.039-.184-1.412-.66-.373-.396-.56-.95-.56-1.505zm7.433 5.414h2.851v2.324h.107c.373-.845.932-1.506 1.892-1.954.852-.476 1.891-.74 3.117-.74.746 0 1.412.106 2.078.37.666.185 1.226.554 1.706 1.03.479.475.852 1.03 1.225 1.77.293.739.48 1.584.48 2.614v9.639h-2.878v-8.874c0-.66-.106-1.32-.293-1.769a4.102 4.102 0 00-.746-1.215c-.293-.29-.666-.554-1.119-.66a5.066 5.066 0 00-1.332-.185c-.56 0-1.12.106-1.599.29a3.38 3.38 0 00-1.332.925c-.373.37-.666.924-.853 1.584-.186.66-.293 1.4-.293 2.245v7.764h-2.824V28.27l-.187-.026zm23.874 12.623c.746 0 1.412-.106 2.078-.37.666-.29 1.119-.66 1.599-1.109.373-.475.746-1.03.932-1.69.187-.66.373-1.32.373-2.14 0-.739-.106-1.504-.373-2.138-.186-.66-.559-1.215-.932-1.69-.48-.476-.933-.845-1.599-1.11-.666-.29-1.332-.37-2.078-.37-.746 0-1.412.107-2.078.37-.667.291-1.12.66-1.599 1.11-.373.475-.746 1.03-.933 1.69-.186.66-.373 1.32-.373 2.139 0 .74.107 1.505.373 2.139.187.66.56 1.215.933 1.69.373.475.932.845 1.599 1.11.559.184 1.332.369 2.078.369zm7.833 2.245h-2.824v-2.14h-.107c-.559.846-1.332 1.4-2.264 1.876-.933.475-1.972.66-3.011.66-1.119 0-2.265-.185-3.198-.555-.932-.37-1.785-.924-2.451-1.69-.666-.74-1.226-1.584-1.519-2.535-.373-.924-.559-1.954-.559-3.09 0-1.135.186-2.139.559-3.169.373-.924.853-1.77 1.519-2.535a6.574 6.574 0 012.451-1.69c.933-.37 1.972-.555 3.198-.555 1.039 0 2.078.185 3.011.66.932.476 1.705 1.11 2.158 1.876h.106V19h2.825v24.11h.106zm14.415-8.689c0-.66-.107-1.214-.293-1.769a3.557 3.557 0 00-.853-1.4c-.373-.37-.852-.66-1.332-.924-.56-.185-1.119-.37-1.892-.37-.666 0-1.332.106-1.892.37-.559.29-1.039.555-1.518 1.03-.373.37-.746.845-.933 1.4-.186.554-.373 1.03-.373 1.505h9.059l.027.158zm-9.033 2.324c0 .66.187 1.215.48 1.77.293.554.666 1.03 1.119 1.4a5.46 5.46 0 001.599.844c.666.185 1.225.29 1.892.29.852 0 1.705-.184 2.344-.66.666-.37 1.226-.924 1.785-1.584l2.159 1.69c-1.599 2.06-3.864 3.09-6.688 3.09-1.226 0-2.265-.185-3.197-.555-.933-.37-1.786-.924-2.452-1.69-.666-.74-1.225-1.505-1.519-2.535-.373-.924-.559-1.954-.559-3.09 0-1.109.186-2.139.559-3.09.374-.924.933-1.769 1.599-2.535.666-.739 1.519-1.214 2.451-1.69.933-.37 1.972-.554 3.118-.554 1.332 0 2.451.185 3.384.66.932.475 1.705 1.03 2.264 1.77.56.739 1.04 1.584 1.333 2.535.293.924.373 1.875.373 2.904v1.03h-12.044zm23.181-4.753c-.373-.37-.746-.74-1.226-1.03a3.52 3.52 0 00-1.785-.475c-.666 0-1.225.184-1.785.475-.48.29-.746.66-.746 1.215 0 .475.187.845.48 1.03.293.29.666.475 1.039.66.373.185.852.29 1.225.37.48.105.853.184 1.119.184.56.185 1.226.29 1.706.555a3.597 3.597 0 011.412.845c.373.37.666.74.932 1.215.187.475.373 1.03.373 1.77 0 .844-.186 1.584-.559 2.138-.373.555-.853 1.11-1.412 1.505-.56.397-1.226.66-1.972.845-.746.185-1.519.291-2.158.291-1.226 0-2.345-.185-3.304-.555-.933-.37-1.785-1.03-2.558-2.06l2.158-1.769c.48.476.933.845 1.519 1.215.586.37 1.226.555 2.078.555.373 0 .746 0 1.119-.106s.666-.185.933-.37c.293-.185.48-.37.666-.554.187-.29.293-.555.293-.845 0-.37-.106-.74-.373-1.03a3.309 3.309 0 00-.932-.66 4.622 4.622 0 00-1.12-.37l-1.119-.29c-.559-.186-1.225-.291-1.705-.476a5.423 5.423 0 01-1.412-.74c-.373-.29-.746-.739-1.039-1.214-.293-.476-.373-1.11-.373-1.77 0-.739.186-1.505.479-2.06.294-.554.747-1.03 1.333-1.4.559-.369 1.119-.66 1.785-.844a8.048 8.048 0 012.078-.29c1.039 0 1.972.184 2.931.554.933.37 1.705 1.03 2.265 1.875l-2.345 1.61zm5.489-12.623h2.824v15.132l6.421-6.365h3.864l-6.874 6.734L170 42.9h-4.05l-6.874-7.658V42.9h-2.825V19.37" fill="#D1D1D1"/></svg>