<svg width="180" height="68" fill="none" xmlns="http://www.w3.org/2000/svg"><path d="M44.322 24.552c0 4.693-.928 9.184-2.995 13.414a27.891 27.891 0 01-4.207 6.25c-2.69 3.044-5.9 5.415-9.48 7.305-.35.186-.612.187-.977 0-3.019-1.587-5.773-3.538-8.188-5.947a28.19 28.19 0 01-5.383-7.434c-.187-.376.02-.363.28-.362 2.822 0 5.629-.403 8.336-1.196.766-.218 1.52-.474 2.279-.721.418-.137.456-.114.392.335-.095.704-.24 1.401-.24 2.117 0 .732.39 1.207 1.125 1.227 1.224.032 2.45.034 3.672 0 .751-.022 1.188-.64 1.09-1.383-.199-1.494-.373-2.99-.57-4.484-.043-.324.096-.49.35-.648a25.907 25.907 0 005.013-4.02c2.289-2.384 4.07-5.078 4.974-8.295.192-.655.33-1.325.41-2.003.036-.318.13-.333.403-.209 1.025.466 2.05.912 3.09 1.35a.54.54 0 01.38.494 33.64 33.64 0 01.246 4.21z" fill="#D1D1D1"/><path d="M30.503 30.621c.602-1.037.748-2.05.47-3.12-.456-1.74-2.224-3.04-3.949-2.92-1.981.138-3.501 1.516-3.753 3.408-.194 1.461.31 2.657 1.416 3.6.19.161.265.308.228.54-.078.52-.166 1.038-.217 1.56a.385.385 0 01-.292.36 31.171 31.171 0 01-7.74 1.993 32.234 32.234 0 01-4.042.216c-.304 0-.456-.104-.563-.388a30.59 30.59 0 01-2.05-10.574c-.04-1.68.036-3.36.227-5.03a.466.466 0 01.321-.432 323.96 323.96 0 003.67-1.617.685.685 0 01.569-.03c3.904 1.467 8.047.114 10.612-2.891a.78.78 0 01.683-.308c.741.022 1.482.016 2.221 0a.673.673 0 01.581.268c1.545 1.799 3.468 2.957 5.81 3.381a8.782 8.782 0 003.512-.071c.464-.104.465-.1.391.342-.499 2.991-1.91 5.54-3.824 7.84a23.015 23.015 0 01-3.668 3.495c-.16.128-.308.288-.613.378zm86.329.986c0-2.449.008-4.9-.009-7.347 0-.383.114-.482.485-.478 2.15.016 4.301-.04 6.45.023 1.72.05 3.366.412 4.583 1.803.886 1.015 1.393 2.205 1.625 3.517.423 2.393.239 4.735-.683 6.992-.871 2.12-2.489 3.182-4.766 3.255-2.477.078-4.955.012-7.432.038-.275 0-.249-.154-.249-.328v-3.844a4391.1 4391.1 0 01-.004-3.631zm3.285.014c0 1.565.008 3.13-.007 4.696 0 .3.081.387.379.38.981-.025 1.966.01 2.945-.036 1.16-.055 2.194-.456 2.664-1.595.912-2.2 1.026-4.453.114-6.686-.435-1.065-1.261-1.686-2.449-1.784-1.082-.089-2.165-.014-3.243-.06-.362-.015-.412.115-.409.432.014 1.549.006 3.1.006 4.652zm-56.868-2.656c-.355 0-.713-.023-1.068.007-.354.031-.559-.085-.683-.455-.391-1.166-1.162-1.962-2.41-2.165-1.86-.3-3.485.328-4.215 2.224-.798 2.07-.806 4.175.047 6.242 1.033 2.507 4.036 2.654 5.583 1.368.545-.456.828-1.082 1.043-1.734.096-.295.247-.398.554-.391.783.02 1.567.028 2.35 0 .427-.017.456.136.374.498-.805 3.572-3.73 5.625-7.395 5.187-1.114-.133-2.186-.382-3.15-.983-1.636-1.026-2.507-2.58-2.927-4.396-.545-2.33-.425-4.641.489-6.87 1.025-2.492 2.996-3.711 5.597-4 1.67-.184 3.271.086 4.72.976 1.562.958 2.454 2.372 2.727 4.181.035.228-.044.315-.265.314-.46-.005-.915-.003-1.371-.003zm25.394 9.155v4.978c0 .923.096.787-.798.798-.583.006-1.167-.02-1.748.008-.388.02-.519-.097-.514-.498.019-1.693.007-3.386.007-5.08v-9.902c0-.561 0-.561.559-.561.655 0 1.31.009 1.964 0 .309-.008.439.074.399.415a9.148 9.148 0 00-.008 1.046c.181-.007.213-.114.26-.194.838-1.367 2.132-1.734 3.612-1.572 2.266.25 3.674 1.552 4.187 3.873a9.392 9.392 0 01-.37 5.456c-.667 1.763-2.181 2.791-4.06 2.87-1.387.058-2.517-.342-3.328-1.508a.991.991 0 00-.162-.13zm2.42-7.985c-.987-.07-1.699.455-2.1 1.39a5.369 5.369 0 00-.077 4.12c.376.999 1.243 1.532 2.302 1.512a2.344 2.344 0 002.186-1.625 5.63 5.63 0 00.03-3.608c-.387-1.216-1.139-1.778-2.341-1.79zm46.548 8.03c-.662.624-1.295 1.192-2.153 1.418a5.112 5.112 0 01-2.735 0c-1.776-.498-2.392-2.098-2.278-3.646.021-.326.076-.65.164-.965.331-1.139 1.112-1.823 2.228-2.15.987-.292 2.015-.352 3.021-.533.306-.056.616-.098.923-.153.395-.069.707-.255.771-.683.067-.449-.049-.852-.421-1.14-.586-.455-2.179-.455-2.769.009-.295.227-.433.56-.511.911-.054.25-.172.342-.437.334-.754-.02-1.51-.02-2.264 0-.317.007-.424-.062-.365-.41.274-1.62 1.161-2.753 2.717-3.258 1.643-.534 3.322-.502 4.992-.048 1.301.355 1.88 1.281 2.051 2.542.053.438.075.879.067 1.32v5.976c0 .469.086.911.546 1.174.179.102.143.27.114.417-.031.18-.196.13-.313.131-.912 0-1.823-.007-2.735.008-.251 0-.367-.101-.416-.322-.063-.298-.126-.59-.197-.932zm-.043-4.352c-.866.445-1.758.55-2.627.739a2.367 2.367 0 00-.94.376c-.523.388-.625.93-.52 1.522a1.305 1.305 0 00.973 1.078c1.17.342 2.653-.47 2.989-1.64.184-.667.1-1.344.119-2.078l.006.002zm-33.947-.183c-.023-1.604.374-3.09 1.465-4.294 1.332-1.47 3.077-1.93 4.999-1.783 1.656.125 3.106.734 4.113 2.12 1.007 1.385 1.286 2.951 1.167 4.615a7.039 7.039 0 01-.388 1.83c-.57 1.623-1.647 2.749-3.285 3.282-1.75.57-3.492.507-5.144-.334-1.89-.962-2.69-2.65-2.922-4.671a6.723 6.723 0 01-.005-.765zm8.621.02c.01-.2.01-.399 0-.597-.183-1.717-.855-2.894-2.612-2.944-.968-.028-1.816.257-2.307 1.16-.798 1.475-.814 3.006-.125 4.511.488 1.069 1.472 1.509 2.734 1.367 1.026-.114 1.834-.83 2.125-1.893a5.082 5.082 0 00.185-1.604zm45.577 2.546c.296-1.048.59-2.095.883-3.144.449-1.615.899-3.23 1.332-4.85.073-.273.195-.349.47-.342.824.02 1.652.023 2.477 0 .341-.01.402.057.282.392-1.101 3.108-2.182 6.222-3.273 9.333-.49 1.394-.971 2.792-1.488 4.175-.812 2.177-2.401 2.621-4.639 2.261-.2-.033-.283-.114-.279-.336.015-.64.015-1.28 0-1.921 0-.266.096-.311.332-.267.196.032.395.046.595.04 1.139-.007 1.823-.964 1.45-2.026-1.303-3.746-2.6-7.493-3.917-11.235-.129-.368-.055-.424.302-.415.868.021 1.736.016 2.604 0 .279-.005.389.088.466.357.765 2.664 1.545 5.322 2.321 7.982l.082-.004zm-78.6-.039c.215-.761.431-1.522.643-2.279.527-1.89 1.052-3.783 1.575-5.676.066-.244.187-.342.449-.342.769.014 1.538 0 2.307 0 .57 0 .57.012.388.532-.551 1.57-1.1 3.142-1.65 4.715-.932 2.672-1.866 5.346-2.801 8.02a9.202 9.202 0 01-.607 1.367c-.57 1.05-1.471 1.55-2.638 1.601a6.84 6.84 0 01-1.532-.06c-.271-.048-.392-.153-.383-.445.02-.555.017-1.11 0-1.665-.01-.322.114-.431.427-.401.623.058 1.224.032 1.69-.49.376-.42.496-.87.306-1.414a6445.34 6445.34 0 01-3.92-11.254c-.171-.493-.164-.502.343-.503.826 0 1.652.01 2.478-.007.298-.007.419.106.499.387.683 2.409 1.39 4.813 2.09 7.217.068.228.146.456.22.684l.116.013zm19.361-2.175c0-1.152-.013-2.305.008-3.457.006-.38-.122-.486-.492-.482-1.139.013-1.139 0-1.139-1.14 0-1.038 0-1.038 1.06-1.04.558 0 .56 0 .56-.57 0-.695.01-1.394 0-2.09-.008-.32.075-.465.429-.456a41.04 41.04 0 002.219 0c.301 0 .391.109.383.406-.021.782 0 1.564-.017 2.347-.006.284.105.372.377.358.369-.02.739 0 1.11-.008.266-.01.389.07.379.36-.017.497-.014.996 0 1.494.008.265-.114.35-.358.341-.327-.01-.656.023-.981-.008-.427-.038-.537.152-.534.545.012 1.665 0 3.33.007 4.994 0 .342.019.684.029 1.025.013.429.281.599.662.628.27.02.541.024.812.013.245-.012.37.058.363.33-.012.54-.01 1.081 0 1.621 0 .24-.107.33-.331.342-.939.031-1.88.073-2.81-.093-1.12-.2-1.71-.905-1.727-2.045-.019-1.14 0-2.28 0-3.418l-.01.003zm52.321-2.426c0 2.476-.007 4.953.008 7.43 0 .34-.095.44-.431.43a29.628 29.628 0 00-2.135 0c-.375.016-.501-.072-.498-.479.02-2.734.011-5.469.011-8.197v-6.447c0-.35.02-.49.474-.488.736.006 1.481.023 2.213-.021.314-.02.371.097.369.385-.01 2.462 0 4.924 0 7.386l-.011.002zm-81.644-2.034c.379-.42.697-.85 1.105-1.205a3.124 3.124 0 012.19-.797c.336.008.516.122.5.511a27.703 27.703 0 000 2.177c.015.388-.12.485-.491.462-.808-.048-1.589.05-2.279.548-.537.389-.788.912-.848 1.555-.152 1.648-.038 3.304-.073 4.95a26.01 26.01 0 000 1.28c.01.302-.114.396-.405.39a46.347 46.347 0 00-2.178 0c-.341.01-.44-.114-.438-.445.011-1.937 0-3.874 0-5.811 0-1.609.008-3.217-.007-4.825 0-.342.084-.483.456-.469.667.025 1.337.023 2.006 0 .362-.012.479.13.456.476-.01.406.006.805.006 1.203zm73.328 4.138c0-1.807.007-3.614-.007-5.421 0-.3.078-.387.378-.379a50.45 50.45 0 002.347 0c.244 0 .349.04.349.323-.01 3.628-.01 7.257 0 10.885 0 .267-.09.342-.342.342a62.037 62.037 0 00-2.347 0c-.296.008-.383-.073-.38-.375.009-1.79.002-3.582.002-5.375zm23.375-7.837a4.037 4.037 0 11.007-8.073 4.037 4.037 0 01-.007 8.073zm-.043-.622a3.426 3.426 0 003.454-3.348c.027-1.877-1.474-3.454-3.318-3.486a3.421 3.421 0 00-3.486 3.35 3.42 3.42 0 003.35 3.487V25.2zm-21.859 1.316c-.398 0-.798-.012-1.194 0-.228.01-.287-.072-.284-.291.012-.754.009-1.507 0-2.259 0-.228.056-.341.31-.341.824.01 1.648.01 2.473 0 .227 0 .29.064.287.289a56.722 56.722 0 000 2.26c0 .276-.114.341-.357.332-.412-.01-.825 0-1.236 0l.001.01zm5.844 25.548c.698-.646 1.173-.616 1.769.047.143-.192.332-.343.55-.44.57-.21 1.126.039 1.281.623.185.699.059 1.416.084 2.125.007.202-.16.15-.279.162-.148.014-.244-.016-.241-.2.008-.469 0-.94 0-1.409-.007-.614-.234-.948-.63-.945-.421 0-.658.35-.66.966 0 .442-.007.883 0 1.324.006.206-.075.27-.275.27-.199 0-.277-.069-.272-.273a33.81 33.81 0 000-1.493c-.009-.504-.228-.798-.584-.798-.357 0-.675.342-.694.785-.02.443.006.882-.012 1.323-.007.173.145.443-.246.456-.391.012-.266-.252-.269-.435a63.425 63.425 0 010-2.092c0-.128-.164-.351.146-.398.292-.044.353.11.332.402zm-51.997.335c.648.342.868.722.75 1.286-.104.494-.549.837-1.164.897-1.367.135-1.367.135-1.367-1.217 0-.825.007-1.65 0-2.476 0-.227.067-.32.3-.347.31-.047.624-.059.936-.033.496.055.971.181 1.132.74.16.56-.13.895-.587 1.15zm-1.22 1.032c0 .84.005.845.708.74.496-.073.774-.391.725-.825-.055-.479-.456-.728-1.14-.7-.582.024-.168.479-.294.701-.01.024 0 .058 0 .084zm-.008-1.842c.076.25-.209.684.406.644.59-.045.912-.245.905-.684-.007-.439-.304-.607-.877-.652-.63-.04-.364.415-.434.694v-.002zm-18.404.523c.125-.133.262-.255.409-.365.66-.417 1.435-.009 1.502.82.05.593.01 1.194.022 1.79 0 .207-.1.229-.262.229-.163 0-.259-.035-.255-.228.01-.527.02-1.054 0-1.578-.015-.301-.098-.597-.44-.716a.57.57 0 00-.622.166.759.759 0 00-.228.578c.01.498-.007.996.008 1.493 0 .227-.075.287-.295.291-.244 0-.235-.132-.228-.297 0-.484.01-.967 0-1.45-.014-.525-.256-.83-.62-.814-.383.017-.657.36-.665.848-.008.412.009.826-.007 1.237-.008.192.137.484-.276.474-.412-.01-.248-.312-.253-.493a45.376 45.376 0 010-2.051c0-.133-.151-.342.163-.383.296-.035.326.136.317.365.753-.612 1.212-.583 1.73.084zm10.503-1.643c1.08.007 1.823.84 1.823 2.04 0 1.254-.785 2.14-1.894 2.139-1.066 0-1.836-.883-1.823-2.095.014-1.213.796-2.092 1.894-2.084zm-1.312 2.108a2.588 2.588 0 000 .297c.068.63.47 1.167.96 1.287a1.14 1.14 0 001.317-.543c.405-.725.413-1.473-.032-2.183-.444-.71-1.402-.73-1.91-.062-.25.348-.37.774-.335 1.201v.003zm-16.754-.014v1.622c0 .186.074.397-.265.403-.363.005-.29-.228-.291-.425 0-.398-.013-.798 0-1.196.008-.228-.068-.298-.29-.29-.442.014-.884.014-1.324 0-.238-.01-.326.059-.315.307.018.44 0 .882.007 1.323 0 .192-.038.284-.257.28-.219-.005-.31-.036-.307-.279.01-1.166.01-2.333 0-3.5 0-.228.077-.293.297-.295.25 0 .273.122.268.32-.01.37.007.74-.006 1.11-.007.198.049.276.26.27.47-.015.94-.015 1.41 0 .22.008.26-.087.254-.277-.01-.37.006-.74 0-1.11 0-.207.044-.313.282-.313s.29.086.286.303c-.013.584 0 1.167 0 1.75l-.01-.003zm60.312-.023c0-.57.009-1.14 0-1.709-.005-.228.05-.333.303-.325.54.017 1.081.012 1.622 0 .169 0 .262.032.262.228s-.105.228-.269.228c-.369 0-.74.006-1.109 0-.189 0-.267.036-.28.254-.056 1.002-.064 1.002.935 1.003h.299c.17 0 .342-.038.342.24-.007.255-.168.214-.319.214-.327 0-.655.012-.981 0-.203-.009-.26.057-.27.264-.061 1.2-.066 1.198 1.117 1.2h.47c.157 0 .186.087.186.217s-.027.22-.185.22c-.64 0-1.28-.005-1.92 0-.228 0-.195-.155-.196-.29v-1.748l-.007.004zm-72.189-.535c.15-.106.234-.172.326-.228.667-.413 1.416-.094 1.564.677.123.632.035 1.275.057 1.913.008.254-.172.199-.323.214-.196.018-.241-.082-.239-.254.005-.483.005-.967 0-1.45 0-.537-.237-.84-.634-.848-.431-.008-.748.347-.752.852 0 .468-.008.938 0 1.407 0 .212-.05.3-.285.298-.235-.002-.284-.098-.283-.306.005-1.221.005-2.443 0-3.665 0-.211.045-.299.28-.306.268-.007.296.114.289.332-.01.433 0 .866 0 1.364zm57.512.022c.228-.15.374-.301.583-.366.559-.177 1.096.05 1.269.607.219.705.08 1.44.096 2.165 0 .228-.206.13-.33.147-.169.023-.228-.067-.22-.228v-1.407c0-.605-.237-.926-.654-.917-.455.009-.741.381-.742.957v1.28c0 .178.017.328-.252.324-.228 0-.285-.086-.284-.3.008-1.237.008-2.474 0-3.71 0-.202.055-.261.262-.267.228-.006.284.077.277.29-.015.453-.005.907-.005 1.425zm-6.656.909c.287-.342.542-.6.751-.895.228-.328.507-.47.937-.336-.289.306-.56.606-.847.893-.178.177-.215.315-.035.534.364.446.694.921 1.048 1.399-.429.132-.695.018-.893-.328a6.67 6.67 0 00-.544-.765c-.059-.076-.091-.254-.236-.179a.35.35 0 00-.197.31c0 .255-.01.512 0 .767.008.188-.067.253-.248.244-.16-.008-.315.02-.315-.228.006-1.266.008-2.533 0-3.799 0-.236.123-.227.295-.241.196-.008.275.042.272.258-.013.711 0 1.422 0 2.135-.005.05.002.1.012.23zm30.691.153c0 .912-.597 1.564-1.445 1.557-.791 0-1.374-.625-1.387-1.481-.016-.912.58-1.563 1.433-1.566.836-.002 1.393.59 1.399 1.49zm-2.285-.021c.012.126.014.255.037.38.082.437.406.753.787.78.382.026.713-.24.857-.684a1.363 1.363 0 00-.089-1.072.742.742 0 00-.711-.456.8.8 0 00-.726.436 1.355 1.355 0 00-.155.611v.005zm-55.15.151h-.639c-.392 0-.435.071-.29.447.144.376.576.604 1.094.556.128-.013.254-.035.378-.065.114-.028.238-.123.291.09.047.186-.043.246-.197.3-.637.218-1.464.06-1.823-.358-.409-.474-.456-1.315-.114-1.923a1.277 1.277 0 011.527-.612c.52.172.867.761.817 1.354-.015.164-.07.22-.234.213-.27-.01-.54-.002-.81-.002zm-.187-.394c.128-.007.257-.007.384 0 .317.032.372-.099.261-.372-.11-.274-.27-.425-.56-.456a.713.713 0 00-.748.377c-.199.342-.149.444.236.45.143.004.285.001.427.001zm21.853.287c-.013.881-.619 1.526-1.439 1.532-.798.005-1.403-.642-1.405-1.507 0-.911.606-1.546 1.462-1.539.822.01 1.394.635 1.382 1.514zm-.558.059c.008-.643-.289-1.1-.736-1.152-.535-.062-.944.32-.992.925-.054.715.289 1.253.821 1.278a.74.74 0 00.664-.314c.166-.21.252-.47.243-.737zM125.7 52.04c.105-.079.14-.102.171-.129.351-.306.744-.401 1.183-.228.464.181.611.582.636 1.026.031.538 0 1.08.014 1.619 0 .214-.078.265-.274.26-.196-.004-.296-.022-.29-.249a33.29 33.29 0 000-1.448c-.009-.57-.255-.876-.666-.86-.41.016-.724.381-.73.888 0 .47-.011.94 0 1.408.006.207-.065.264-.268.264-.202 0-.272-.054-.271-.262.006-.824.001-1.648-.015-2.47 0-.131.032-.169.153-.193.268-.057.349.091.357.374zm22.488 1.068c-.016.911-.649 1.565-1.481 1.535-.832-.03-1.39-.683-1.367-1.543.027-.92.627-1.522 1.497-1.5.801.02 1.37.65 1.351 1.508zm-2.302-.029c.01.14.029.28.056.42.114.448.443.732.826.728.361 0 .695-.277.813-.7a1.414 1.414 0 00-.103-1.074.753.753 0 00-.719-.441.79.79 0 00-.715.455 1.26 1.26 0 00-.158.612zm-73.902.011c.024-.926.616-1.516 1.494-1.495.808.02 1.367.675 1.338 1.556-.03.88-.668 1.518-1.481 1.49-.814-.029-1.378-.669-1.35-1.55zm2.272 0a1.253 1.253 0 00-.152-.655.799.799 0 00-1.377-.075 1.4 1.4 0 00.03 1.526.773.773 0 001.295-.03 1.25 1.25 0 00.2-.766h.004zm-10.732.13a4.993 4.993 0 01-.64 0c-.43-.057-.4.155-.287.44.142.358.422.52.785.57.256.029.514 0 .757-.086.132-.045.183-.008.216.104.028.095.063.179-.052.259-.327.227-1.308.177-1.727-.102-.47-.313-.697-1.038-.527-1.687.164-.633.6-1.05 1.153-1.104.829-.081 1.447.563 1.368 1.405-.016.172-.082.216-.235.213-.27-.015-.541-.012-.811-.012zm-.228-.396c.084.009.17.009.254 0 .163-.034.424.126.474-.104.05-.23-.081-.465-.298-.613a.754.754 0 00-.987.175c-.1.134-.228.297-.158.455.071.159.274.066.418.083.1.007.201.008.301.004h-.004zm92.687 1.08c.228-.673.441-1.242.6-1.823.105-.392.305-.495.705-.368-.467 1.103-.778 2.256-1.351 3.304-.173.346-.46.623-.812.785-.097.043-.227.14-.282-.03-.047-.132-.161-.294.051-.404.09-.043.175-.094.257-.152.488-.366.569-.668.348-1.237-.252-.633-.511-1.262-.752-1.9-.044-.12-.241-.306-.04-.387.202-.08.456-.094.57.248.195.63.45 1.248.706 1.964zm-34.649.311c-.334.309-.641.456-.997.417-.385-.035-.675-.222-.78-.618-.104-.395.047-.724.367-.97.32-.244.707-.295 1.088-.313.269-.012.265-.14.216-.325-.099-.374-.515-.506-1.043-.351-.126.036-.296.27-.394-.04-.086-.269.151-.271.292-.318 1.057-.355 1.709.114 1.72 1.213 0 .428.011.855 0 1.281 0 .13.13.342-.114.38-.199.037-.427.045-.355-.356zm-.053-.747c0-.183.047-.37-.254-.366-.57 0-.943.24-.949.628 0 .328.17.502.488.515.404.016.704-.32.715-.777zm-65.743-.691c0-.47-.024-.94.009-1.407.023-.342-.114-.418-.41-.382-.183.022-.37 0-.554 0-.185 0-.264-.032-.262-.228.002-.195.072-.248.25-.247.84.006 1.679.008 2.519 0 .193 0 .236.078.239.254 0 .197-.09.22-.261.228-.32.016-.754-.16-.925.082-.155.221-.044.631-.045.958v2.175c0 .206.028.386-.294.377-.293-.009-.27-.17-.27-.36.005-.483.004-.966.004-1.45zm86.631-.774c.13-.111.27-.21.418-.297.702-.342 1.453.094 1.511.892.042.581.007 1.167.018 1.75 0 .195-.08.234-.254.236-.174.002-.292-.03-.285-.253.013-.456.007-.912 0-1.367-.005-.603-.233-.931-.642-.94-.456-.008-.761.368-.767.94v1.238c0 .193.053.39-.278.386-.313 0-.253-.191-.254-.364V51.96c0-.105-.107-.275.114-.297.176-.019.342-.02.36.227.011.04.043.076.059.113zm-49.004-1.314c-.456-.01-.75.371-.656.83.051.25.243.113.372.143.129.03.33-.076.342.193.013.27-.191.243-.349.228-.308-.04-.378.088-.368.377.022.611 0 1.223.01 1.834 0 .204-.034.3-.275.3-.242.002-.266-.12-.263-.313.007-.612 0-1.222 0-1.834 0-.187.033-.385-.262-.363-.148.012-.142-.105-.14-.205 0-.1-.017-.22.136-.204.342.037.265-.222.285-.397.087-.697.6-1.14 1.2-1.015.13.027.292.036.257.254-.031.167-.033.18-.289.172zm14.202.904c.142.014.282.043.418.086.157.043.141.133.114.26-.027.126-.084.203-.228.158a1.175 1.175 0 00-.204-.06c-.419-.052-.804.017-1.055.394a1.215 1.215 0 00-.057 1.292c.202.39.556.5.971.465.099-.007.198-.019.295-.037.114-.022.228-.146.278.091.045.21-.041.289-.214.327-.611.135-1.212.131-1.652-.38-.44-.512-.485-1.14-.206-1.76.267-.592.778-.831 1.54-.836zm28.572 0c.081.013.237.028.387.063.128.03.294.027.228.26-.066.234-.165.196-.341.157-.951-.209-1.596.504-1.318 1.437.163.543.657.785 1.346.642.141-.03.245-.114.303.114.058.228-.066.259-.203.29-.608.148-1.207.144-1.655-.36-.448-.503-.503-1.139-.228-1.753.267-.596.771-.834 1.481-.85zm-21.87.009c.042.009.208.043.375.074.133.023.209.078.153.227-.044.121-.065.255-.253.192a1.384 1.384 0 00-.331-.07c-.658-.045-1.103.376-1.117 1.052-.015.718.4 1.145 1.086 1.113.116.003.231-.014.342-.049.146-.058.218-.061.268.114.05.175-.006.244-.152.281-.588.158-1.172.174-1.639-.278-.489-.471-.559-1.072-.342-1.695.204-.6.658-.901 1.278-.967.062 0 .132.007.332.007zm-14.117.816c0-.612.008-1.224 0-1.837 0-.203.055-.27.262-.267.208.003.308.035.306.278-.01 1.238-.01 2.476 0 3.715 0 .245-.114.272-.312.277-.228 0-.257-.102-.254-.286.002-.627-.003-1.253-.002-1.88zM45.65 15.053a1.526 1.526 0 110-3.052 1.554 1.554 0 011.562 1.53 1.535 1.535 0 01-1.563 1.522zm1.321-1.526a1.32 1.32 0 00-1.306-1.3 1.344 1.344 0 00-1.328 1.285 1.325 1.325 0 001.335 1.316 1.307 1.307 0 001.3-1.3zm76.799 39.587v1.196c0 .192-.049.279-.264.275-.215-.003-.305-.052-.302-.285a90.87 90.87 0 000-2.392c0-.228.107-.25.291-.25.183.001.287.038.278.259-.014.4-.003.8-.003 1.197zm.055-2.252c-.037.186-.12.317-.331.313a.29.29 0 01-.316-.212.289.289 0 01-.004-.138.282.282 0 01.026-.124.301.301 0 01.316-.17c.196.01.294.142.309.33z" fill="#D1D1D1"/><path d="M164.692 21.964v-1.879c0-.174.02-.312.236-.326.581-.035 1.165-.098 1.738.067.503.142.798.469.859.998.069.588-.128 1.06-.62 1.287-.284.132-.228.24-.102.436.244.383.48.774.697 1.174.063.114.294.265.114.383a.412.412 0 01-.599-.125c-.239-.387-.483-.773-.7-1.173-.174-.323-.372-.546-.789-.5-.214.024-.302.07-.295.297.015.413 0 .826.005 1.239 0 .179-.031.305-.246.313-.214.008-.296-.102-.294-.312 0-.627-.004-1.253-.004-1.879zm.537-.956c0 .902 0 .904.9.824.127-.008.253-.032.374-.072a.633.633 0 00.456-.564c.072-.61-.192-.911-.845-.951-.885-.05-.885-.05-.885.763zM46.312 14.447c-.358-.077-.38-.364-.52-.543-.087-.114-.168-.198-.314-.156-.145.042-.082.186-.093.289-.007.07 0 .14 0 .213 0 .071-.015.155-.1.161-.083.007-.106-.075-.113-.147v-1.321c0-.041 0-.107.027-.114a.897.897 0 01.855.032c.228.126.334.421.148.577-.383.325-.114.544.036.798.03.068.055.139.074.21zm-.722-1.504c-.215-.05-.2.127-.209.31-.008.184.023.343.267.308.188-.022.38-.044.393-.292.017-.284-.187-.308-.451-.326z" fill="#D1D1D1"/></svg>