<svg width="180" height="68" fill="none" xmlns="http://www.w3.org/2000/svg"><path d="M33.227 42.914l-6.667 2.87v-.29c-1.28.317-2.72.501-4.053.58-6.294-.053-11.254-3.318-11.334-7.163V37.49c2.054 2.95 6.267 4.95 11.334 4.872 1.706.079 3.466-.184 4.933-.58l.587-1.422c-1.734.527-3.654.87-5.52.87-6.294 0-11.254-3.24-11.334-7.163v-1.16c2.054 2.74 6.267 4.715 11.334 4.583 2.293.132 4.506-.342 6.4-1.159l.293-1.422c-1.84.948-4.213 1.501-6.667 1.422-6.293.08-11.253-3.16-11.333-7.163V28.01c2.053 2.791 6.267 4.792 11.333 4.871 2.88-.079 5.6-.842 7.84-2l.294-1.713c-2.027 1.475-4.987 2.45-8.134 2.581-6.293-.132-11.253-3.397-11.333-7.453.053-3.87 5.04-7.11 11.333-7.163 3.734.053 7.227 1.344 9.28 3.45l.214.343h1.466l-.213-.343C31.227 17.817 27.093 16 22.533 16 15.547 15.974 10 19.74 10 24.27v14.904c.24 4.425 5.653 8.032 12.48 8.032 4.507.027 8.587-1.738 10.747-4.292z" fill="#D1D1D1"/><path d="M30.506 53l2.347-9.849-6.747 2.897 4.107-17.065H22.32l2.053-8.4h25.2l-2.053 8.4h-8.214l-1.76 4.635 9.094-3.766L30.506 53zm4.107-11.85l-1.173 5.793 9.68-14.457-7.92 3.476 3.52-8.111h7.92l1.466-6.083h-22.88L23.76 27.85h7.92l-3.814 16.196 6.747-2.897zm31.68-14.932v.026c.027.922-.266 1.633-.853 2.16-.587.526-1.387.79-2.427.79s-1.893-.343-2.533-1.001c-.64-.659-.96-1.528-.96-2.581V23.9c0-1.053.32-1.922.933-2.58.64-.659 1.467-1.001 2.48-1.001 1.067 0 1.894.263 2.507.764.613.526.907 1.237.88 2.159v.026h-1.707c0-.553-.133-.974-.4-1.237-.266-.264-.693-.395-1.253-.395-.533 0-.933.21-1.227.632-.293.42-.453.948-.453 1.606v1.738c0 .658.16 1.211.453 1.633.32.421.747.632 1.307.632.533 0 .907-.132 1.173-.395.267-.264.4-.685.4-1.238h1.68v-.026zm9.654-.685c0 1.053-.347 1.949-1.014 2.633-.666.685-1.546 1.027-2.64 1.027-1.093 0-1.946-.342-2.64-1.027-.666-.684-1.013-1.58-1.013-2.633v-1.554c0-1.053.347-1.922 1.013-2.633.667-.685 1.547-1.053 2.614-1.053 1.093 0 1.973.342 2.64 1.053.693.685 1.013 1.58 1.013 2.633v1.554h.027zm-1.76-1.58c0-.685-.16-1.211-.507-1.66-.347-.42-.8-.657-1.413-.657-.587 0-1.067.21-1.387.658-.32.421-.507.974-.507 1.659v1.554c0 .684.16 1.237.507 1.685.32.421.8.659 1.387.659.613 0 1.066-.211 1.413-.659.347-.421.507-1 .507-1.685v-1.554zm6.293 5.109h-1.76v-8.638h1.76v8.638zm10.107 0h-1.76l-3.52-5.82h-.027v5.82h-1.76v-8.638h1.76l3.52 5.82h.027v-5.82h1.76v8.638zm8.826-7.295h-2.506v7.295h-1.76v-7.295h-2.454v-1.343h6.72v1.343zm7.254 3.503h-3.254v2.475h3.867v1.317h-5.6v-8.638h5.6v1.343h-3.84v2.16h3.253v1.343h-.026zm4.88 2.475h3.92v1.317h-5.68v-8.638h1.76v7.321zm11.386-2.475h-3.253v2.475h3.867v1.317h-5.6v-8.638h5.6v1.343h-3.84v2.16h3.253v1.343h-.027zm9.84 2.633c-.266.343-.666.659-1.226.922-.534.263-1.227.395-2.08.395-1.067 0-1.92-.316-2.587-.974-.667-.659-1.013-1.502-1.013-2.555v-1.817c0-1.053.32-1.896.986-2.554.64-.659 1.494-1.001 2.507-1.001 1.067 0 1.893.263 2.453.764.56.5.854 1.158.827 2v.027h-1.653c0-.447-.134-.816-.4-1.08-.267-.263-.667-.395-1.174-.395-.533 0-.96.211-1.306.606-.32.422-.48.948-.48 1.58v1.817c0 .659.16 1.185.506 1.607.347.421.8.605 1.36.605.427 0 .747-.052.987-.131a1.41 1.41 0 00.56-.316v-1.686h-1.68v-1.211h3.44v3.397h-.027zm4.534-2.291v3.45h-1.76v-8.638h3.04c.986 0 1.786.237 2.346.685.56.447.854 1.08.854 1.87 0 .447-.107.816-.347 1.158-.24.316-.587.58-1.04.79.507.158.88.395 1.12.764.213.342.347.79.347 1.317v.632c0 .237.026.5.106.764a.984.984 0 00.347.579v.131h-1.813c-.16-.131-.267-.342-.32-.631-.054-.29-.08-.58-.08-.843v-.606c0-.421-.107-.764-.347-1-.24-.238-.587-.37-1.013-.37h-1.44v-.052zm0-1.317h1.253c.48 0 .853-.105 1.093-.316.24-.21.374-.5.374-.921 0-.395-.134-.711-.374-.948-.24-.238-.586-.343-1.066-.343h-1.28v2.528zm11.92 2.923H146.4l-.587 1.87h-1.84l2.96-8.637h1.787l2.933 8.637h-1.84l-.586-1.87zm-2.4-1.369h1.973l-.96-3.055h-.027l-.986 3.055zm8.72.079v3.134h-1.76v-8.638h3.36c1.013 0 1.786.264 2.373.764.587.5.853 1.185.853 2.001 0 .817-.293 1.501-.853 2.002-.587.5-1.36.763-2.373.763h-1.6v-.026zm0-1.317h1.6c.48 0 .853-.131 1.12-.395a1.45 1.45 0 00.373-1c0-.422-.133-.764-.373-1.027-.24-.264-.614-.395-1.12-.395h-1.6v2.817zM170 29.061h-1.76v-3.58h-3.573v3.58h-1.76v-8.637h1.76v3.713h3.573v-3.713H170v8.638zM62.72 43.177h-1.093V37.49h-1.974v-.922h5.04v.922H62.72v5.688zm7.333 0H68.96v-3.08c0-.396-.08-.686-.24-.87-.16-.184-.4-.29-.747-.29-.453 0-.773.132-.986.395-.214.264-.32.711-.32 1.343v2.476H65.6V36.12h1.067v1.79c0 .29-.027.58-.054.922h.08c.134-.237.347-.421.614-.553.266-.132.56-.21.906-.21 1.227 0 1.84.605 1.84 1.843v3.265zm3.707.08c-.8 0-1.413-.238-1.84-.685-.453-.448-.667-1.08-.667-1.87 0-.817.214-1.449.614-1.923s.986-.71 1.706-.71c.667 0 1.2.21 1.574.605.4.395.586.948.586 1.66v.578h-3.386c.026.474.16.87.4 1.107.24.263.613.395 1.066.395.294 0 .587-.027.827-.08.267-.052.533-.158.827-.29v.87c-.267.131-.534.21-.8.263a4.45 4.45 0 01-.907.08zm-.187-4.372c-.346 0-.613.105-.826.316-.214.21-.32.526-.374.948h2.294c0-.422-.107-.738-.294-.948-.186-.211-.453-.316-.8-.316zm8.347.079h-1.227v4.213H79.6v-4.213h-.827v-.5l.827-.317v-.316c0-.579.133-1.027.427-1.316.293-.29.72-.422 1.28-.422.373 0 .746.053 1.12.185l-.294.816a2.647 2.647 0 00-.773-.132c-.24 0-.427.08-.533.211-.107.158-.16.369-.16.658v.316h1.226v.817h.027zm4.453 4.213l-.16-.658h-.053c-.16.237-.373.421-.64.553a2.11 2.11 0 01-.933.21c-.614 0-1.067-.157-1.387-.447-.32-.29-.453-.764-.453-1.37v-3.291h1.093v3.08c0 .396.08.66.24.87.16.184.4.29.747.29.453 0 .773-.132.986-.395.214-.264.32-.712.32-1.343v-2.502h1.094v5.003h-.854zm4.267-.79c.267 0 .533-.053.8-.132v.79a1.55 1.55 0 01-.453.132 4.035 4.035 0 01-.587.053c-1.013 0-1.52-.527-1.52-1.58v-2.686h-.693v-.474l.746-.395.374-1.054h.666v1.106h1.44v.817h-1.44v2.686c0 .263.054.447.187.58.08.105.267.157.48.157zm5.36.79l-.16-.658h-.053a1.63 1.63 0 01-.64.553c-.267.132-.587.21-.934.21-.613 0-1.066-.157-1.386-.447-.294-.29-.454-.764-.454-1.37v-3.291h1.094v3.08c0 .396.08.66.24.87.16.184.4.29.746.29.454 0 .774-.132.987-.395.213-.264.32-.712.32-1.343v-2.502h1.093v5.003H96zm4.96-5.109c.213 0 .4.027.533.053l-.106 1a3.01 3.01 0 00-.48-.052c-.427 0-.774.132-1.04.421-.267.29-.4.632-.4 1.08v2.607H98.4v-5.003h.853l.134.869h.053c.16-.29.4-.527.667-.711.24-.158.533-.264.853-.264zm3.493 5.188c-.8 0-1.413-.237-1.84-.684-.453-.448-.666-1.08-.666-1.87 0-.817.213-1.449.613-1.923s.987-.71 1.707-.71c.666 0 1.2.21 1.573.605.4.395.587.948.587 1.66v.578h-3.387c.027.474.16.87.4 1.107.24.263.613.395 1.067.395.293 0 .586-.027.826-.08.267-.052.534-.158.827-.29v.87c-.267.131-.533.21-.8.263-.267.053-.56.08-.907.08zm-.186-4.371c-.347 0-.614.105-.827.316-.213.21-.32.526-.373.948h2.293c0-.422-.107-.738-.293-.948a1.094 1.094 0 00-.8-.316zm10.293 1.764c0 .816-.213 1.448-.64 1.922-.427.448-1.013.685-1.76.685-.48 0-.88-.105-1.253-.316-.374-.21-.64-.526-.827-.921a3.14 3.14 0 01-.293-1.37c0-.816.213-1.448.64-1.896.426-.448 1.013-.685 1.786-.685.72 0 1.307.237 1.734.711.426.474.613 1.08.613 1.87zm-3.68 0c0 1.159.427 1.738 1.307 1.738.853 0 1.28-.58 1.28-1.738 0-1.132-.427-1.712-1.28-1.712-.454 0-.774.158-.987.448-.213.29-.32.711-.32 1.264zm7.467-1.685h-1.227v4.213h-1.093v-4.213h-.827v-.5l.827-.317v-.316c0-.579.133-1.027.426-1.316.294-.29.72-.422 1.28-.422.374 0 .747.053 1.12.185l-.293.816a2.652 2.652 0 00-.773-.132c-.24 0-.427.08-.534.211-.106.132-.16.369-.16.658v.316h1.227v.817h.027zm7.573 4.213h-1.093v-3.08c0-.396-.08-.66-.214-.87-.133-.184-.373-.29-.693-.29-.427 0-.72.132-.907.395-.186.264-.293.711-.293 1.343v2.502h-1.067v-5.003h.854l.16.658h.053a1.39 1.39 0 01.613-.553 1.95 1.95 0 01.88-.184c.774 0 1.307.263 1.547.79h.08a1.69 1.69 0 01.64-.58c.267-.131.587-.21.933-.21.614 0 1.04.158 1.334.447.266.29.426.764.426 1.37v3.265h-1.066v-3.08c0-.396-.08-.66-.214-.87-.16-.184-.373-.29-.693-.29-.427 0-.72.132-.907.395-.186.264-.293.659-.293 1.185v2.66h-.08zm9.173-2.528c0 .816-.213 1.448-.64 1.922-.426.448-1.013.685-1.76.685-.48 0-.88-.105-1.253-.316-.373-.21-.64-.526-.827-.921a3.153 3.153 0 01-.293-1.37c0-.816.213-1.448.64-1.896.427-.448 1.013-.685 1.787-.685.72 0 1.306.237 1.733.711.4.474.613 1.08.613 1.87zm-3.68 0c0 1.159.427 1.738 1.307 1.738.853 0 1.28-.58 1.28-1.738 0-1.132-.427-1.712-1.28-1.712-.453 0-.773.158-.987.448-.213.29-.32.711-.32 1.264zm9.387 2.528h-1.093v-3.08c0-.396-.08-.686-.24-.87-.16-.184-.4-.29-.747-.29-.453 0-.8.132-.987.395-.186.264-.32.711-.32 1.343v2.502h-1.066v-5.003h.853l.16.658h.053a1.63 1.63 0 01.64-.553c.267-.132.587-.184.934-.184 1.226 0 1.813.605 1.813 1.843v3.24zm3.707.08c-.8 0-1.414-.238-1.84-.685-.454-.448-.667-1.08-.667-1.87 0-.817.213-1.449.613-1.923s.987-.71 1.707-.71c.667 0 1.2.21 1.573.605.4.395.587.948.587 1.66v.578h-3.387c.027.474.16.87.4 1.107.24.263.614.395 1.067.395.293 0 .587-.027.827-.08.24-.052.533-.158.826-.29v.87a3.15 3.15 0 01-.8.263 4.63 4.63 0 01-.906.08zm-.214-4.372c-.346 0-.613.105-.826.316-.214.21-.32.526-.374.948h2.294c0-.422-.107-.738-.294-.948-.186-.211-.453-.316-.8-.316zm2.454-.711h1.173l1.04 2.844c.16.395.267.79.32 1.132h.027c.026-.158.08-.368.16-.605.08-.238.453-1.37 1.173-3.371h1.173l-2.16 5.662c-.4 1.027-1.04 1.553-1.973 1.553-.24 0-.48-.026-.693-.079v-.842c.16.026.346.052.56.052.506 0 .88-.29 1.093-.895l.187-.474-2.08-4.977z" fill="#D1D1D1"/></svg>