<svg width="180" height="68" fill="none" xmlns="http://www.w3.org/2000/svg"><path d="M158.4 61.4v-1.5H23.2V8.1h133.6v53.3h1.6v-1.5 1.5h1.6V5H20v58h140v-1.6h-1.6z" fill="#D1D1D1"/><path d="M36.9 36l3.7 9.4h.1l3.5-9.4h4.2l.7 1.7-.6.1c-.4 0-.7.3-.6.7l.7 10.7 1.2.1.7 1.8h-5.7v-1.7l.7-.1c.5 0 .5-.2.5-.8l-.7-8.5-3.7 8.7-2.1.7L36 40l-.5 9.1 1.2.1V51H31l.7-1.7.7-.1c.4-.1.6-.2.6-.8l.7-10.6-1.2-.1.7-1.8h3.7v.1zm14.5 15l.7-1.7.5-.1c.5-.1.6-.3.8-.7L57 37.9l-1.2-.1.7-1.8h4.3l4.7 13.2.8.1.7 1.7h-5.7v-1.7l.7-.1c.4 0 .6-.3.4-.7l-.6-1.8h-5.2l-.8 2.4 1.2.1V51h-5.6zm5.7-6.2h4.2l-2.1-6.4h-.1l-2 6.4zm19.5 3.8V45l-1.1-.1-.7-1.8h5.9l-.3 1.7-.6.1c-.4.1-.6.2-.6.7v4.3c-1.3.9-3.1 1.4-5.1 1.4-4.4 0-6.8-2.5-6.8-7.8 0-5.8 3.4-7.8 7.3-7.8 1.8 0 3.5.4 4.5.9v2l-2.1.8v-.7c0-.4 0-.6-.4-.7-.4-.1-1.2-.2-1.8-.2-3.2 0-4.6 2.1-4.6 5.4 0 3.6 1.2 5.7 4 5.7.8.2 1.8 0 2.4-.3zm19 1.7L93 51l-6.6-10.9v9.1l1.2.1V51h-5.5l.7-1.7.4-.1c.4-.1.5-.2.5-.6V37.8l-1.5-.1.7-1.8h3.7L93 46.7v-8.9l-1.2-.1V36h5.4l-.7 1.7-.4.1c-.4.1-.6.2-.6.7v11.8h.1zm1.7.7l.7-1.7.2-.1c.5-.1.6-.3.8-.7l3.7-10.6-1.2-.1.7-1.8h4.3l4.5 13.1.8.1.7 1.8h-5.7v-1.7l.7-.1c.4 0 .6-.3.4-.7l-.6-1.8h-5.2l-.8 2.4 1.2.1V51h-5.2zm5.3-6.2h4.2l-2.1-6.4h-.1l-2 6.4zm13.9-6.8h-2.1c-.5 0-.6.2-.6.6v.8l-2.2-.7V36H124v2.7l-2.2.7v-.8c0-.4-.1-.6-.6-.6h-2v11.2l1.3.1.7 1.8h-6.7l.7-1.7.7-.1c.5 0 .6-.2.6-.7V38zm9.9 11.3l.2-.1c.6-.1.7-.2.7-.8V37.8l-.9-.1-.7-1.8h10.6v2.7l-2.2.7v-1.1c0-.4-.1-.3-.6-.3H130v4.3h5.4v2.1H130V49h3.8c.5 0 .5-.2.5-.6v-.2l2.2-.6V51h-10.9l.8-1.7zm19.7-2.4c0-1.4-1.2-2-2.8-2.5-2.1-.6-4.3-1.5-4.2-4.4.1-2.8 2.2-4.4 5.4-4.3 1.4 0 3.1.3 4.2.9v2.2l-2.2.7v-.7c0-.4 0-.6-.4-.7-.3-.1-1.1-.2-1.6-.2-1.2 0-2.4.4-2.5 1.9 0 1.4 1.2 1.9 2.9 2.5 2.1.7 4.2 1.5 4.1 4.5-.1 3-2.1 4.6-5.7 4.5-1.6 0-3.2-.3-4.5-.9v-2.2l2.2-.7v.7c0 .4.1.6.4.7.4.1 1.1.2 1.8.2 1.6 0 2.9-.5 2.9-2.2zM32.9 17h9.8v1H34v5.5h7.2v1H34v7.2h-1.1V17zm18.2 0H50v14.7h1.1V17zm8.3 0h1l9.9 12.9V17h1v14.7h-.9l-9.9-12.9v12.9h-1.1V17zm25.4-.1h1l6.6 14.8h-1.1l-1.9-4.3h-8.2l-1.9 4.3h-1.1l6.6-14.8zm4.2 9.6l-3.7-8.2-3.7 8.2H89zM99.2 17h.9l9.9 12.9V17h1.1v14.7h-.9l-10-12.9v12.9h-1V17zm19.5 7.3c0-4.4 3.2-7.6 7.4-7.6 1.6 0 3 .4 4.2 1.2V19c-1.2-.8-2.6-1.3-4.2-1.3-3.6 0-6.4 2.8-6.4 6.6s2.8 6.6 6.4 6.6c1.8 0 3.3-.5 4.5-1.5v1.2c-1.2.9-2.7 1.4-4.5 1.4-4.1-.1-7.4-3.2-7.4-7.7zm19.1-7.3h9.9v1h-8.8v5.3h7.3v1h-7.3v6.4h9.1v1h-10.2V17z" fill="#D1D1D1"/></svg>