<svg width="180" height="68" fill="none" xmlns="http://www.w3.org/2000/svg"><path fill-rule="evenodd" clip-rule="evenodd" d="M114.612 48c-2.481 0-4.322-.477-5.522-1.43a4.049 4.049 0 01-1.601-3.255h4.962c.24.953.641 1.509 2.241 1.509 1.761 0 2.482-.953 2.482-3.097V39.82h-.08a3.834 3.834 0 01-3.922 2.382c-4.082 0-6.163-2.303-6.163-6.83-.081-1.905.56-3.811 1.84-5.24 1.121-1.192 2.722-1.827 4.403-1.827 1.6-.159 3.121.635 3.922 2.065h.08v-1.747h4.882V41.25c0 2.303-.56 3.97-1.761 5.003-1.28 1.191-3.121 1.747-5.763 1.747zm.16-16.28c-1.6 0-2.561 1.35-2.561 3.654 0 2.382.881 3.652 2.481 3.652 1.361 0 2.482-1.111 2.482-2.461v-1.827c0-1.906-.881-3.017-2.402-3.017zM68.029 43.236a7.78 7.78 0 01-4.962-1.27c-.96-.794-1.521-1.986-1.601-3.256h4.562c.08.953.72 1.43 1.921 1.43 1.12 0 1.84-.398 1.84-1.192 0-.635-.4-.953-1.44-1.112l-2.321-.317c-2.801-.318-4.322-1.906-4.322-4.368 0-1.27.48-2.462 1.44-3.335 2.802-1.906 6.484-1.986 9.285-.239.96.795 1.521 1.986 1.521 3.177H69.47c0-.794-.72-1.43-1.521-1.43h-.08c-1.28 0-1.52.556-1.52 1.112s.24.953 1.36 1.112l2.481.318c1.12.08 2.161.476 2.962 1.19.8.795 1.2 1.827 1.12 2.94.16 3.255-2.321 5.24-6.243 5.24zm-14.407-.08c-4.642 0-7.284-2.7-7.284-7.543a7.538 7.538 0 011.921-5.32c1.44-1.35 3.362-2.145 5.363-1.986 2.481 0 4.402.715 5.603 2.065a8.273 8.273 0 011.76 5.4v1.111h-9.524c.16 2.065.8 3.018 2.32 3.018.961.159 1.842-.477 2.002-1.35h5.042c-.32 2.938-2.801 4.606-7.203 4.606zm0-11.832c-1.36 0-2.001.953-2.161 2.86h4.322v-.16c-.16-1.826-.88-2.7-2.161-2.7zm91.806 11.754a5.502 5.502 0 01-4.162-1.589 6.218 6.218 0 01-1.521-4.367c-.08-1.589.48-3.177 1.521-4.289 1.12-1.032 2.641-1.667 4.162-1.588 3.521 0 5.683 2.224 5.683 5.877 0 3.652-2.242 5.956-5.683 5.956zm0-9.53c-1.841 0-2.241 1.985-2.241 3.653 0 2.462.8 3.653 2.241 3.653 1.44 0 2.241-1.27 2.241-3.653 0-2.382-.801-3.653-2.241-3.653zm-11.446 9.53a5.502 5.502 0 01-4.162-1.589c-1.041-1.19-1.521-2.78-1.441-4.288 0-3.653 2.161-5.877 5.683-5.877 3.202 0 5.123 1.589 5.203 4.289h-3.282c-.08-.953-.48-2.065-1.921-2.065-2.001 0-2.241 2.303-2.241 3.653 0 2.462.72 3.653 2.241 3.653a1.974 1.974 0 002.001-1.985v-.239h3.202c0 1.271-.561 2.542-1.521 3.336-1.121.794-2.481 1.111-3.762 1.111zm-53.787-.08c-1.2.08-2.481-.238-3.442-1.032-.96-.953-1.44-2.383-1.36-3.733v-13.5h4.962v3.892h2.962v3.494h-2.882v5.161c0 1.51.48 2.065 1.841 2.065.32 0 .64 0 .96-.08v3.574c-1.04.08-2 .16-3.04.16zm82.681-.238h-3.361v-6.591c.08-.636-.08-1.27-.32-1.827a1.48 1.48 0 00-1.441-.635c-1.361 0-2.161.953-2.161 2.541v6.512h-3.362V31.562h3.202v1.826c.72-1.35 2.081-2.144 3.521-2.064 1.921 0 3.042.794 3.522 2.302h.08c.641-1.429 2.081-2.382 3.682-2.302 2.561 0 3.762 1.35 3.762 4.129v7.306h-3.362v-6.591c.08-.636-.08-1.27-.32-1.827a1.478 1.478 0 00-1.441-.635c-1.36 0-2.161.953-2.161 2.541l.16 6.512zm-66.433 0h-5.122V28.623h4.962v2.303h.08a4.836 4.836 0 014.643-2.54c1.84 0 3.121.476 3.921 1.429.801 1.19 1.201 2.7 1.041 4.13v8.814h-5.123v-8.02c.08-.715-.08-1.43-.4-2.066-.4-.476-.96-.794-1.6-.714-1.521 0-2.322.953-2.322 2.859l-.08 7.94zm-74.117 0h-5.122V28.623h4.962v2.303h.08a4.836 4.836 0 014.642-2.54c1.841 0 3.122.476 3.922 1.429.8 1.19 1.201 2.7 1.04 4.13v8.814h-5.122v-8.02c.08-.715-.08-1.43-.4-2.066-.4-.476-.96-.794-1.6-.714-1.521 0-2.322.953-2.322 2.859l-.08 7.94zm105.013 0h-3.522v-3.336h3.522v3.336zm-37.7 0h-5.122V28.623h5.123V42.76zm-47.703 0h-5.283l-5.042-14.136h5.122l1.841 6.115c.48 1.747.88 3.574.88 3.653h.08c.24-1.191.481-2.382.801-3.573l1.841-6.115h4.963L41.936 42.76zm-26.653 0H10V22.747h5.283V42.76zm69.074-15.645l5.283-.953V21l-5.283.953v5.162z" fill="#D1D1D1"/></svg>