<svg width="180" height="68" fill="none" xmlns="http://www.w3.org/2000/svg"><g clip-path="url(#clip0)" fill="#D1D1D1"><path d="M91.487 38.32h-3.338v-.151l.333-.03c.213-.031.304-.062.304-.335v-4.157c0-.395-.213-.668-.638-.668-.515 0-.94.425-.94.85v3.884c0 .334.09.364.334.395l.303.03v.152h-3.278v-.152l.304-.06c.152-.03.273-.03.273-.365v-4.158c0-.576-.121-.758-.698-.85v-.151l2.731-.668v1.093c.516-.486 1.154-1.093 2.064-1.093 1.123 0 1.639.698 1.639 1.578v4.25c0 .303.121.333.334.363l.303.03-.03.213zm-7.739-7.89c0 .576-.486 1.062-1.123 1.062s-1.093-.456-1.093-1.063c0-.576.456-1.062 1.093-1.062.668 0 1.123.455 1.123 1.062zm.577 7.89h-3.309v-.152c.091-.03.304-.03.304-.03.212-.03.334-.06.334-.364v-4.188c0-.577-.122-.79-.698-.85v-.152l2.762-.668v5.767c0 .364.09.394.394.455l.243.03-.03.152zm-3.551 0h-3.339v-.152l.334-.03c.212-.03.304-.121.304-.364v-4.097c0-.486-.243-.698-.638-.698-.485 0-.94.425-.94.82v3.944c0 .334.12.365.333.395l.304.03v.152h-3.339v-.152l.364-.06c.183-.03.243-.122.243-.273v-7.163c0-.728-.212-.789-.698-.88v-.152l2.762-.667v4.036c.425-.516 1.244-1.093 2.033-1.093.91 0 1.64.516 1.64 1.579v4.248c0 .334.12.334.364.365l.273.03v.182zm-7.224-1.456c-.424.667-1.365 1.669-3.065 1.669-2.944 0-4.522-1.73-4.522-4.4 0-3.279 2.155-4.644 4.492-4.644 1.184 0 1.82.394 2.276.394.152 0 .364-.03.516-.09l.03 2.124h-.273l-.82-1.518c-.333-.273-.819-.425-1.608-.425-1.456 0-2.306 1.64-2.306 3.824 0 2.489 1.153 3.855 2.61 3.855 1.578 0 2.124-.638 2.458-1.002l.213.213zm-9.468 1.456h-3.338v-.152l.333-.03c.213-.03.304-.121.304-.364v-4.097c0-.486-.243-.698-.638-.698-.485 0-.94.425-.94.82v3.944c0 .334.121.365.334.395l.303.03v.152h-3.338v-.152l.394-.06c.182-.03.243-.122.243-.273v-7.163c0-.728-.212-.789-.698-.88v-.152l2.762-.667v4.036c.425-.516 1.244-1.093 2.033-1.093.91 0 1.639.516 1.639 1.579v4.248c0 .334.121.334.364.365l.273.03-.03.182z"/><path d="M57.466 37.258c-.334.577-1.093 1.184-2.246 1.184-1.123 0-1.67-.76-1.67-1.548v-4.25h-.758v-.15l2.701-2.156h.152v1.791h1.548l-.182.516h-1.366v4.067c0 .546.303.789.698.789.364 0 .759-.243 1.032-.456l.09.213zm-4.522.88l-2.671.243v-1.032c-.425.486-1.244 1.093-2.064 1.093-1.062 0-1.608-.698-1.608-1.609v-3.338c0-.577-.213-.759-.698-.82v-.151l2.761-.668v4.643c0 .486.182.76.638.76.303 0 .425-.062.637-.183.273-.182.304-.303.304-.637v-2.944c0-.577-.183-.729-.698-.82v-.151l2.761-.668v5.584c0 .425.334.455.638.516v.182zm-13.657-2.61c0 1.79-1.457 2.944-3.49 2.944-1.063 0-2.064-.303-2.61-.698v-1.973h.242l.759 1.64c.455.272.91.545 1.7.545 1.062 0 1.638-.697 1.638-1.487 0-.728-.546-1.274-1.85-1.7-1.64-.515-2.55-1.243-2.55-2.67 0-1.517 1.517-2.64 3.217-2.64 1.062 0 1.82.455 2.063.455.092 0 .243-.03.334-.03v1.972h-.242l-.82-1.456c-.243-.274-.91-.395-1.426-.395-.91 0-1.578.516-1.578 1.244 0 .729.485 1.093 2.003 1.579 1.79.576 2.61 1.274 2.61 2.67zm58.786 2.064c-.152.273-.76.85-1.67.85-.91 0-1.244-.486-1.335-1.032-.364.546-.85 1.032-1.912 1.032-1.093 0-1.7-.638-1.7-1.548 0-.941.547-1.457 1.973-2.003.941-.364 1.578-.486 1.578-1.487 0-.85-.334-1.154-.758-1.154-.577 0-.91.365-.972.456.091.06.486.212.486.758 0 .547-.455.88-1.002.88-.576 0-.85-.455-.85-.94 0-.85 1.154-1.518 2.914-1.518 1.487 0 2.216.698 2.216 1.912v3.248c0 .485.06.698.364.698.182 0 .364-.122.516-.274l.152.122zm-3.066-.91v-2.155c-.576.698-1.517.728-1.517 2.154 0 .516.243.88.698.88.425 0 .82-.515.82-.88zm-49.104-1.488c0 1.912-1.366 3.248-3.096 3.248s-3.096-1.336-3.096-3.278c0-1.912 1.397-3.278 3.096-3.278 1.73.03 3.096 1.366 3.096 3.308zm-2.094 0c0-2.215-.213-2.974-.972-2.974-.789 0-.97.759-.97 2.944 0 2.064.181 2.944.97 2.944.76.03.971-.85.971-2.914zM170 37.258c-.334.577-1.062 1.214-2.246 1.214-1.123 0-1.669-.759-1.669-1.548v-4.28h-.759v-.15l2.701-2.156h.152v1.791h1.548l-.182.516h-1.366v4.097c0 .546.304.759.698.759.364 0 .668-.213.971-.456l.152.213zm-4.674-1.032c0 1.366-1.214 2.215-2.731 2.215-1.336 0-1.882-.364-2.155-.485v-1.639h.152l.728 1.366c.304.212.85.394 1.305.394.729 0 1.214-.364 1.214-.97 0-.669-.819-.88-1.669-1.154-.941-.334-1.791-.85-1.791-1.942 0-1.336 1.184-2.095 2.519-2.095 1.123 0 1.639.425 1.943.334v1.578h-.152l-.728-1.183a1.845 1.845 0 00-1.063-.334c-.849 0-1.244.303-1.244.82 0 .576.789.788 1.669 1.122 1.093.334 2.003.76 2.003 1.973zm-26.677 2.094h-3.338v-.152l.303-.03c.213-.03.304-.06.304-.334v-4.158c0-.394-.212-.728-.637-.728-.547 0-.972.455-.972.91v3.885c0 .334.092.364.334.395l.304.03v.152h-3.248v-.152l.304-.06c.152-.031.273-.031.273-.365v-4.127c0-.577-.121-.759-.698-.85v-.152l2.731-.668v1.093c.516-.486 1.154-1.093 2.064-1.093 1.123 0 1.639.668 1.639 1.579v4.248c0 .304.121.334.334.365l.273.03v.182h.03zm-7.708-7.89c0 .576-.486 1.062-1.123 1.062-.638 0-1.093-.456-1.093-1.063 0-.576.455-1.062 1.093-1.062.637 0 1.123.486 1.123 1.062zm.577 7.89h-3.308v-.152c.121-.03.303-.03.303-.03.212-.03.334-.06.334-.364v-4.188c0-.577-.152-.79-.698-.85v-.152l2.762-.668v5.767c0 .394.091.425.394.455l.243.03-.03.152zm-3.491 0h-3.338v-.152l.303-.03c.213-.03.304-.06.304-.334v-4.158c0-.394-.213-.667-.637-.667-.516 0-.972.425-.972.85v3.884c0 .334.091.364.334.395l.304.03v.152h-3.248v-.152l.304-.06c.152-.031.273-.031.273-.365v-4.127c0-.577-.121-.79-.698-.85v-.152l2.731-.668v1.093c.516-.486 1.154-1.093 2.064-1.093 1.123 0 1.639.668 1.639 1.579v4.248c0 .304.121.334.334.365l.303.03v.182z"/><path d="M121.047 32.797c0 .576-.334.97-.941.97-.425 0-.728-.272-.728-.637 0-.12.03-.273.121-.394-.303 0-1.001.486-1.001 1.001v4.006c0 .304.121.365.364.395l.334.03v.152h-3.399v-.152l.273-.03c.273-.03.364-.06.364-.425v-4.188c0-.577-.212-.728-.698-.79v-.15l2.731-.669v1.002c.456-.607 1.093-1.002 1.67-1.002.546 0 .91.334.91.88zm-11.29 5.523h-4.097v-.151l.486-.061c.364-.03.455-.091.455-.486v-.151l-.152-5.949h-.03l-2.489 6.89h-.394l-2.428-6.83h-.031l-.091 5.373v.334c0 .728.182.819.759.91v.152H99.53v-.152c.576-.121.88-.364.88-1.244l.182-6.07v-.243c0-.364-.122-.698-.577-.728 0 0-.243-.03-.394-.03v-.213h3.065l1.821 5.493h.03l2.003-5.493h2.701v.152c-.485.03-.728.182-.728.516v.516l.243 6.737c0 .364.151.486.516.516l.485.06v.152zm50.137-3.126c0 1.912-1.396 3.248-3.096 3.248-1.73 0-3.095-1.336-3.095-3.278 0-1.912 1.396-3.278 3.095-3.278 1.73.03 3.096 1.396 3.096 3.308zm-2.125 0c0-2.215-.212-2.974-.971-2.974-.789 0-.971.759-.971 2.944 0 2.064.182 2.944.971 2.944.789.03.971-.85.971-2.914zm-3.581-3.156c0 1.578-1.487 2.458-3.46 2.458-.303 0-.455 0-.819-.03v3.156c0 .273.121.425.637.486l.365.03v.182h-4.067v-.182l.516-.06c.334-.03.425-.122.425-.425V30.55c0-.516-.274-.607-.941-.698v-.182h3.52c2.459 0 3.824.576 3.824 2.367zm-2.246-.03c0-1.427-.516-2.003-1.487-2.003-.242 0-.425.03-.576.06v4.037c.091 0 .182.03.546.03 1.001.03 1.517-.546 1.517-2.124zm-6.859.06l-.394.759-1.032-.06c.334.303.607.728.607 1.365 0 1.335-1.244 2.246-2.762 2.246a5.67 5.67 0 01-1.062-.121.609.609 0 00-.091.333c0 .152.303.273.637.334l1.791.334c1.578.303 2.246.728 2.246 1.73 0 1.305-1.73 2.124-3.581 2.124-1.7 0-3.187-.303-3.187-1.244 0-.79.85-1.123 1.578-1.305-.577-.243-.759-.728-.759-1.062 0-.668.516-1.002 1.032-1.366-.85-.364-1.335-1.062-1.335-1.973 0-1.335 1.244-2.276 2.762-2.276.607 0 .971.122 1.244.243l2.306-.06zm-2.852 2.094c0-1.426-.213-1.942-.759-1.942-.577 0-.729.516-.729 1.942 0 1.397.183 1.882.729 1.882s.759-.485.759-1.882zm1.092 5.676c0-.456-.364-.607-1.366-.79l-1.699-.333c-.273.242-.577.425-.577 1.062s.698 1.032 1.791 1.032c1.183 0 1.851-.486 1.851-.971z"/><path d="M115.645 35.194c0 1.912-1.396 3.248-3.096 3.248-1.73 0-3.095-1.336-3.095-3.278 0-1.912 1.396-3.278 3.095-3.278 1.7.03 3.096 1.396 3.096 3.308zm-2.125 0c0-2.215-.212-2.974-.971-2.974-.789 0-.971.759-.971 2.944 0 2.064.182 2.944.971 2.944.759.03.971-.85.971-2.914zm-95.538-6.676h-6.465v10.44h6.465v-10.44zm7.951 0H19.47v10.44h6.464v-10.44z"/></g><defs><clipPath id="clip0"><path fill="#fff" transform="translate(10 27)" d="M0 0h160v14.143H0z"/></clipPath></defs></svg>