<svg width="180" height="68" fill="none" xmlns="http://www.w3.org/2000/svg"><path d="M10 34.717c0-2.675.014-5.35 0-8.024 0-.506.092-.693.654-.693 5.275.023 10.551.023 15.828 0 .587 0 .707.187.704.73a2384.62 2384.62 0 000 16.048c0 .51-.106.693-.66.693a1827.73 1827.73 0 00-15.916 0c-.513 0-.61-.18-.608-.645.007-2.702-.002-5.407-.002-8.11zm10.317 4.224h2.724c-.446-.162-.594-.462-.592-.924.019-2.215.019-4.43 0-6.642 0-.398.102-.576.534-.548.584.035 1.155.097 1.637.462.483.365.522.954.707 1.557.201-.476.063-.882.122-1.27.128-.823-.113-1.111-1.032-1.098-3.95.065-7.901.028-11.85.028h-.86c.78.102.845.603.838 1.217-.018 2.012 0 4.026 0 6.038 0 .538.021 1.067-.755 1.155 2.127.058 4.201.05 6.273.065.377 0 .513-.13.499-.5-.02-.5 0-1.004 0-1.508-.3.543-.61.97-1.113 1.248-.993.542-2.065.462-3.128.367-.383-.03-.492-.324-.487-.693.012-.862 0-1.725 0-2.587 0-.185-.078-.462.206-.49.716-.041 1.45-.161 2.14.084.541.189.37.78.525 1.19.012.027.095.027.153.04v-3.344c-.553 1.555-1.024 1.793-2.622 1.566-.356-.05-.414-.215-.409-.508v-2.328c0-.287.076-.555.379-.594 1.12-.148 2.245-.18 3.333.194.783.27.536 1.109.894 1.763.18-1.17.672-1.918 1.847-2.03.61-.058.867.046.85.748-.05 2.011-.025 4.025-.013 6.04.018.61.092 1.25-.8 1.302zm109.704-7.031c0-1.08.014-2.1 0-3.118 0-.462.289-.404.573-.404 3.286 0 6.573.016 9.86 0 .413 0 .545.118.533.534-.03.924.03 1.847-.03 2.757-.034.527.157.622.617.617 1.892-.023 3.783 0 5.673-.037.494 0 .693.148.838.614.508 1.73 1.056 3.451 1.596 5.193.414-.123.349-.476.423-.712.462-1.478.902-2.962 1.321-4.453.125-.448.3-.647.818-.644 3.387.023 6.775.023 10.162 0 .501 0 .647.154.631.635-.03.924 0 1.848-.088 2.772-.291-.322-.279-.693-.353-1.056-.294-1.444-.878-1.989-2.345-2.02-1.986-.045-1.596-.253-1.72 1.586a3.182 3.182 0 000 .944c.087.36-.363.91.309 1.07.672.16 1.49-.231 1.707-.832.068-.247.121-.499.159-.753.049-.207-.092-.462.243-.693v5.082c-.335-.298-.21-.628-.25-.905-.064-.463-.136-.924-.492-1.257a1.502 1.502 0 00-1.469-.282c-.482.134-.198.64-.21.97-.027.746.058 1.495.033 2.24-.021.62.251.82.822.772.231-.02.462 0 .693 0 1.924-.03 2.466-.478 2.926-2.351.072-.296.021-.638.446-1.097 0 1.344.011 2.483 0 3.621 0 .231-.261.171-.418.171h-7.523c-.065 0-.132-.08-.187-.117a.248.248 0 01.243-.231c1.328-.167 1.335-.17 1.337-1.516 0-1.868-.021-3.737 0-5.608 0-.593-.231-.861-.802-.833-.492.025-.979-.056-1.475-.042-1.01.023-1.183.462-1.155 1.328a90.713 90.713 0 010 5.52c-.035.899.265 1.27 1.143 1.229.115 0 .293-.055.367.201h-4.596c.023-.067.035-.152.058-.155 1.462-.2 1.462-.2 1.462-1.658v-6.005l-.162-.033c-.58 1.966-1.155 3.927-1.741 5.897-.146.494-.243 1.005-.393 1.497-.06.194-.016.49-.347.522-.388.039-.383-.296-.462-.515l-2.078-6.738c-.072-.23-.067-.503-.296-.658 0 1.861-.037 3.716 0 5.569.042 1.616.134 1.688 1.617 2.277h-3.398c1.76-.14 1.49-1.448 1.469-2.598a167.734 167.734 0 00-.12-4.389c-.044-1.01-.767-1.513-1.774-1.291-1.512.335-1.519.335-1.524 1.924-.005 1.59.044 3.234-.012 4.83-.032.889.199 1.385 1.176 1.281a.389.389 0 01.444.218h-4.821c.074-.081.12-.18.18-.19 1.34-.212 1.365-.21 1.386-1.568.032-1.753-.016-3.508.03-5.262.023-.886-.312-1.275-1.199-1.194a1.467 1.467 0 01-.401-.064c.08-.33.33-.273.498-.231.924.189.887-.347.781-.973-.344-2.046-1.577-2.87-3.735-2.52-.314.053-.362.192-.362.449 0 3.508 0 7.016-.016 10.525 0 .536.351.614.718.67.598.092 1.203.138 1.785.383h-7.703c.679-.393 1.227-.259 1.733-.275.725-.023 1.039-.335 1.039-1.058-.009-3.363-.004-6.726.016-10.09 0-.514-.185-.601-.649-.606-1.991-.02-2.758.559-3.233 2.471-.051.204.016.472-.326.663zm-88.687.375h3.483c-.114.196-.134.268-.162.272-1.525.192-1.411-.037-1.432 1.67-.023 2.01-.019 2.01 1.968 2.01 1.877 0 1.877 0 1.86-1.871-.017-1.534-.017-1.534-1.532-1.876.08-.28.316-.187.496-.187 3.927 0 7.874 0 11.81-.032.693 0 .882.2.838.861-.055.846-.014 1.698-.014 2.65-.438-.34-.335-.714-.402-1.03-.311-1.525-.893-2.08-2.452-2.144-2.204-.083-1.781-.173-1.848 1.716a2.688 2.688 0 000 .772c.1.374-.363.972.349 1.106.861.16 1.616-.245 1.808-.938.115-.415.146-.854.377-1.263v4.917c-.377 0-.231-.316-.25-.5-.002-.433-.1-.86-.286-1.25-.404-.693-1.114-.73-1.753-.601-.515.104-.231.665-.231 1.014-.04.774.014 1.552 0 2.326 0 .43.154.642.602.63.548 0 1.095.028 1.64 0 1.326-.08 1.883-.53 2.287-1.822.143-.462.25-.924.376-1.404.402.16.231.462.231.679.026.776 0 1.552.023 2.328.014.409-.041.621-.545.614-2.649-.034-5.312-.034-7.95-.039-1.434 0-2.868.014-4.305.016-.272 0-.563.081-.836-.092.06-.074.085-.146.125-.155 1.4-.323 1.42-.32 1.413-1.748 0-.707.34-1.642-.134-2.054-.4-.346-1.314-.117-2-.12-1.688 0-1.69 0-1.674 1.696 0 .572-.074 1.173.069 1.716.187.72 1.065.154 1.557.693h-4.9c-.043-.188.089-.204.188-.218 1.374-.198 1.386-.196 1.386-1.559 0-1.753-.051-3.508.03-5.259.044-.924-.314-1.238-1.155-1.2-.146 0-.356.085-.444-.204.425-.203.897 0 1.32-.132l.032.056.037-.044zm10.876 4.282c0-1.062-.016-2.127 0-3.19 0-.448-.132-.706-.603-.755a9.684 9.684 0 00-2.31.037c-.36.049-.554.203-.552.612a458.72 458.72 0 010 6.636c0 .43.162.593.594.654.714.101 1.411 0 2.118-.017.552-.013.762-.23.748-.79-.014-1.062.005-2.124.005-3.187zm10.146-7.934c.164-.393.462-.242.693-.242 3.464 0 6.929 0 10.377-.019.545 0 .758.116.735.71-.051 1.232 0 2.47-.021 3.709 0 .18.092.461-.2.478-.294.016-.232-.28-.257-.462-.081-.462-.134-.91-.247-1.354-.462-1.831-1.245-2.494-3.132-2.642-.716-.056-1.442 0-2.16-.044-.6-.03-.831.254-.834.818 0 1.35-.02 2.702-.055 4.053 0 .39.152.462.506.485 1.88.111 2.623-.508 2.88-2.386.044-.312-.116-.693.23-.947.248.534.303 6.28.08 7.267-.269.034-.255-.167-.273-.33-.044-.4-.065-.802-.125-1.2-.268-1.796-1.261-2.104-3.002-2.034-.382.016-.29.293-.287.499 0 1.524.037 3.048.035 4.573 0 .573.23.792.808.845 1.034.108 2.077.084 3.104-.071 1.199-.194 2.049-.816 2.495-1.984.266-.758.474-1.535.621-2.324.03-.132 0-.323.194-.33.254 0 .231.21.231.374 0 1.466 0 2.933.028 4.388.014.61-.393.444-.693.444-2.853 0-5.707-.016-8.562-.021-.864 0-1.73.023-2.594.018-.199 0-.531.144-.536-.23 0-.303.296-.19.476-.21 1.975-.232 1.929.23 1.954-2.1.03-2.733.014-5.465-.014-8.197-.011-1.28-.102-1.328-1.386-1.4-.358-.014-.743.12-1.069-.134z" fill="#D1D1D1"/><path d="M41.209 31.897c-.026-.199-.049-.398-.077-.599-.27-2.002-1.866-3.041-3.817-2.508-.335.093-.287.312-.287.527 0 3.478 0 6.956-.023 10.435 0 .545.296.693.732.753a9.682 9.682 0 011.788.328H32.02l-.014-.118c.575-.046 1.155-.1 1.72-.139.566-.039.827-.337.827-.891 0-3.479 0-6.957.019-10.433 0-.406-.183-.446-.522-.462-2.042-.108-3.003.6-3.407 2.59-.05.251-.076.507-.118.787-.148-.33-.265-3.178-.19-3.509.077-.33.329-.265.541-.265h9.944c.325 0 .554.02.53.446-.055 1.002.072 2.011-.075 3.002a.494.494 0 00-.056-.016l-.011.072zm63.729 8.908c1.6-.67 1.616-.67 1.572-2.464-.025-1.35-.062-2.7-.104-4.05-.041-1.401-.09-1.457-1.411-1.983 1.053 0 2.109-.028 3.16.016.293.011.277.397.351.633.564 1.741 1.118 3.485 1.737 5.42.584-1.886 1.155-3.575 1.617-5.29.18-.673.48-.853 1.129-.81.839.056 1.686.015 2.61.015-.104.189-.12.263-.148.265-1.446.19-1.446.187-1.446 1.7 0 1.695.042 3.393-.018 5.081-.032.864.18 1.326 1.125 1.215a.374.374 0 01.434.208h-4.779c.268-.36.661-.194.982-.212.411-.021.656-.137.653-.592 0-2.31 0-4.619-.173-6.963-.397 1.268-.804 2.54-1.187 3.801-.353 1.18-.693 2.368-1.021 3.553-.06.21-.011.483-.344.51-.393.033-.367-.295-.441-.52-.725-2.263-1.449-4.529-2.171-6.797a1.772 1.772 0 00-.301-.575c-.013 2.132-.071 4.245.109 6.354.06.693.413 1.104 1.118 1.203.178.026.416-.074.54.277l-3.593.005z" fill="#D1D1D1"/><path d="M105.501 36.632a4.408 4.408 0 01-1.616 3.554 3.699 3.699 0 01-5.313-.522c-1.508-1.878-1.37-4.783.35-6.467 1.098-1.074 2.438-1.457 3.891-.89 1.658.648 2.455 2 2.681 3.717.016.202.018.405.007.608zm-1.831.288c-.028-1.284-.076-2.31-.518-3.28-.309-.679-.739-1.235-1.593-1.24a1.691 1.691 0 00-1.71 1.21 8.33 8.33 0 00.153 6.047c.277.668.804 1.118 1.617 1.083.813-.034 1.316-.49 1.635-1.198.407-.917.388-1.897.416-2.622zm-13.135-.395c-.132 2.51-1.633 4.324-3.587 4.511-2.566.247-4.668-2.028-4.389-4.756a4.804 4.804 0 011.45-3.139c1.065-1.004 2.352-1.362 3.75-.861 1.54.552 2.362 1.765 2.692 3.326.05.304.077.611.084.92zm-6.137-.16a7.363 7.363 0 00.522 3.117c.316.72.787 1.277 1.672 1.258.885-.018 1.462-.54 1.714-1.332a8.685 8.685 0 00-.174-5.82c-.263-.694-.766-1.218-1.616-1.188-.85.03-1.37.524-1.68 1.264a6.732 6.732 0 00-.438 2.702z" fill="#D1D1D1"/><path d="M91.567 34.116c0 1.767-.037 3.527.02 5.287.021.68.539 1.042 1.222 1.113.187.019.402-.036.596.278h-3.792a.76.76 0 010-.111c1.605-.3 1.617-1.476 1.568-2.742-.053-1.118-.032-2.24-.046-3.36-.019-1.698-.088-1.786-1.67-2.095.924-.52 2.74-.183 3.353.628l3.823 5.047c0-1.495.02-2.802 0-4.11-.023-1.136-.813-1.47-1.78-1.676h3.644c-1.437.499-1.52.57-1.529 2.182-.014 1.982.035 3.964.049 5.946 0 .177.126.448-.14.517-.265.07-.309-.199-.413-.358-1.385-2.157-3.032-4.114-4.547-6.172-.118-.145-.176-.362-.358-.374zm77.696-1.972v2.899a2.843 2.843 0 01-.13.505c-.205-.57-.328-.967-.492-1.348-.545-1.26-1.54-1.922-2.734-1.834-.728.05-1.278.346-1.428 1.122-.15.776.21 1.358.957 1.617.746.259 1.556.4 2.33.621 1.67.476 2.384 1.46 2.208 3.003-.115 1.023-.584 1.822-1.575 2.173-.991.352-1.98.268-2.83-.462-.81-.692-.824-.692-1.314.26-.06.117-.06.285-.231.32-.134-.106-.101-.259-.101-.397v-3.448c.42.23.376.57.475.829.462 1.23 1.019 2.4 2.467 2.758.982.242 1.869-.183 2.116-.991.286-.94-.111-1.779-1.086-2.142-.884-.33-1.817-.54-2.693-.893-1.155-.462-1.644-1.326-1.552-2.506a2.262 2.262 0 011.686-2.06c.924-.252 1.825-.158 2.504.51.621.607.875.362 1.125-.259.039-.097.069-.2.101-.3l.197.023zm-41.891 5.106c.122 1.927-.795 3.368-2.354 3.738a3.61 3.61 0 01-4.25-2.13c-.718-1.848-.609-3.668.573-5.312 1.137-1.585 2.989-1.878 4.583-.75.311.23.42.15.589-.119.14-.23.147-.554.475-.658.206.95.169 3.45-.115 4.157-.106-.503-.183-.88-.263-1.254a3.93 3.93 0 00-.846-1.847c-.924-1.03-2.54-.91-3.097.346a7.513 7.513 0 000 6.26c.55 1.247 2.31 1.422 3.397.461.693-.603.936-1.413 1.061-2.284.023-.203-.167-.534.247-.607zM81.92 32.047v4.123c-.437-.437-.347-.894-.437-1.264-.414-1.684-1.195-2.524-2.402-2.497-1.102.023-1.804.853-2.051 2.576a9.997 9.997 0 00.101 3.695c.307 1.319.966 1.986 1.991 2.026 1.284.046 2.273-.622 2.647-1.848a14.78 14.78 0 00.31-1.617c.512 1.03-.282 2.894-1.425 3.449-2.204 1.064-4.696-.086-5.246-2.465-.443-1.924-.2-3.714 1.264-5.187.986-.991 3.002-1.386 4.072-.291.35.36.52.189.692-.15.097-.2.21-.39.317-.587l.166.037z" fill="#D1D1D1"/><path d="M115.966 32.354h4.938c-.073.118-.097.19-.127.194-1.531.201-1.549.201-1.563 1.732-.016 1.668.032 3.335 0 5.003-.019.882.231 1.386 1.219 1.257.146-.019.354-.067.451.247h-4.941c.063-.404.407-.268.605-.245.788.085.998-.303.996-1.005 0-1.868.03-3.737.021-5.605 0-1.234-.033-1.234-1.31-1.342a2.698 2.698 0 01-.323-.072l.034-.164zm-74.757-.457v-.056c.018.005.037.01.055.017l.06.427-.048.034s-.035-.055-.033-.055a4.268 4.268 0 00-.035-.367z" fill="#D1D1D1"/><path d="M20.317 38.941c.892-.057.818-.693.813-1.307 0-2.014-.037-4.028.014-6.04.016-.693-.23-.806-.85-.748-1.185.113-1.677.861-1.848 2.03-.358-.654-.11-1.492-.893-1.762-1.088-.374-2.213-.342-3.333-.194-.303.039-.381.307-.379.593v2.329c0 .293.053.462.409.508 1.598.23 2.078 0 2.621-1.566v3.351c-.057-.014-.14-.014-.152-.041-.155-.41.016-1-.524-1.19-.693-.245-1.425-.125-2.142-.083-.284.018-.205.305-.205.49v2.586c0 .365.104.659.487.693 1.063.086 2.134.176 3.128-.367.503-.277.813-.693 1.113-1.247 0 .503-.016 1.007 0 1.508.014.37-.123.501-.499.499-2.079-.014-4.146 0-6.273-.065.776-.09.755-.619.755-1.155 0-2.011-.016-4.025 0-6.037 0-.614-.058-1.116-.838-1.217h.861c3.95 0 7.902.037 11.851-.028.924-.014 1.155.275 1.033 1.097-.06.388.078.795-.123 1.27-.184-.602-.212-1.198-.706-1.556-.495-.358-1.054-.416-1.638-.462-.432-.028-.536.15-.534.547.014 2.213.014 4.427 0 6.643 0 .462.146.755.592.924l-2.74-.003z" fill="#fff"/></svg>