<svg width="180" height="68" fill="none" xmlns="http://www.w3.org/2000/svg"><path d="M163.041 30.066l1.546 4.817h-3.306l1.866-4.817h-.106zm-7.066 10.093h3.759l.88-2.462h4.746l.88 2.462H170l-5.199-14.017h-3.654l-5.172 14.017zm-4.427 0h3.76V26.142h-3.76V40.16zm-12.159-4.816c0 3.355 2.64 4.816 5.733 4.816 2.88 0 5.733-1.11 5.733-4.492 0-2.462-2-3.355-3.866-3.923-2.107-.569-3.973-.569-3.973-1.678 0-.893 1.093-1.11 1.653-1.11 1.093 0 2.213.325 2.213 1.57h3.306c0-3.03-2.639-4.492-5.306-4.492-2.533 0-5.519 1.11-5.519 4.248 0 2.463 2.213 3.356 3.973 3.816 1.999.568 3.866.785 3.866 2.03 0 1.109-1.093 1.352-2.213 1.352-1.44 0-2.427-.568-2.427-2.245h-3.306l.133.108zm-6.293-5.277l1.547 4.817h-3.306l1.866-4.817h-.107zm-6.932 10.093h3.653l.88-2.462h4.853l.88 2.462h3.759l-5.199-14.017h-3.76l-5.066 14.017zm-12.159 0h1.44V28.28l8.052 11.88h1.547V26.141h-1.333v11.771l-8.16-11.635h-1.546v13.881zm-2.88 0h1.333V26.142h-1.333V40.16zm-13.679 0h3.626v-5.601h4.747v5.601h3.546V26.142h-3.546v5.034h-4.747v-4.898h-3.653v13.881h.027zm-1.12-8.956c0-3.14-2.986-5.034-5.84-5.034-3.972 0-6.612 3.14-6.612 7.063 0 3.816 2.64 6.954 6.613 6.954 3.306 0 5.84-2.03 6.08-5.601H93.26c-.214 1.678-1.093 2.57-2.773 2.57-2.213 0-3.093-2.029-3.093-3.923 0-2.03.88-4.032 3.093-4.032 1.44 0 2.533.677 2.64 2.03h3.306-.107v-.027zm-23.944 8.956h11.252V37.02H75.9v-2.678h6.853v-2.815H76.14v-2.57h7.28v-2.68H72.38V40.16zm-1.12-14.017h-11.6v3.14h4.08v10.877h3.653V29.281h4.08v-3.139h-.213zM37.904 31.42c.32.216.667 0 .56-.46l-1.76-3.14h-.666l-11.04 19.835c-.453.46-1.093.46-1.333 0l-3.76-6.386-.213-.893v-5.601c0-.569-.213-.893-.56-1.11l-8.826-7.847c-.56-.325-.32-1.11.454-1.11h15.785l3.866 2.246c.214.217.214.46 0 .569l-1.546 2.922c0 .216-.213.325-.32.216l-3.093-1.677-.667-.217H20.68c-.32 0-.453.46-.213.677l2.773 2.246c.32.324.453.784.453 1.11v7.387c0 .46.56.568.773.216l11.493-20.16c.213-.324 1.093-.324 1.093 0l11.812 20.728c.56.677-.213 1.353-.88 1.11l-13.705-8.172c-.213 0-.32-.325-.213-.46l1.653-2.814c0-.217.32-.217.56-.217l1.653 1.11v-.109h-.027z" fill="#D1D1D1"/></svg>